<svg width="24" height="23" viewBox="0 0 24 23" fill="none" xmlns="http://www.w3.org/2000/svg">
<g id="Group 23827">
<path id="Vector" d="M11.9643 22.6663C8.48168 22.6663 5 22.6663 1.5174 22.6663C0.432917 22.6663 0.32885 22.5604 0.32885 21.4567C0.32885 21.2139 0.324286 20.9701 0.330676 20.7273C0.346194 20.1842 0.574412 19.9514 1.10661 19.9304C1.22803 19.9258 1.34944 19.9286 1.47176 19.9286C8.46616 19.9286 15.4615 19.9286 22.4559 19.9286C23.4856 19.9286 23.5979 20.0436 23.5979 21.0925C23.5979 21.2906 23.5979 21.4877 23.5979 21.6858C23.5942 22.4727 23.4089 22.6635 22.6384 22.6672C22.2888 22.669 21.9392 22.6672 21.5896 22.6672C18.3808 22.6672 15.173 22.6672 11.9643 22.6672V22.6663Z" fill="#005FB7"/>
<path id="Vector_2" d="M5.34868 14.4513C5.34868 15.9237 5.34137 17.3971 5.35507 18.8695C5.35781 19.158 5.29482 19.2603 4.98262 19.252C4.14825 19.2283 3.31207 19.2338 2.47771 19.2502C2.21663 19.2557 2.14725 19.1763 2.14816 18.9198C2.15638 15.9438 2.15911 12.9678 2.14542 9.99281C2.14451 9.68152 2.26592 9.65505 2.51878 9.65961C3.33854 9.67331 4.15921 9.6797 4.97805 9.65687C5.28204 9.64866 5.35689 9.73994 5.35415 10.0348C5.33955 11.5073 5.34776 12.9797 5.34776 14.4531L5.34868 14.4513Z" fill="#005FB7"/>
<path id="Vector_3" d="M9.91131 14.4486C9.91131 15.921 9.90492 17.3944 9.91679 18.8669C9.91953 19.1498 9.86567 19.2621 9.54799 19.2521C8.71363 19.2265 7.87744 19.2338 7.04308 19.2494C6.78656 19.2539 6.70988 19.1827 6.71079 18.9216C6.71992 15.9457 6.71901 12.9697 6.71079 9.99469C6.71079 9.74821 6.761 9.65054 7.03304 9.65693C7.8674 9.67518 8.70359 9.67701 9.53795 9.65693C9.83554 9.64962 9.92044 9.72996 9.9177 10.0312C9.90218 11.5037 9.9104 12.9761 9.9104 14.4495L9.91131 14.4486Z" fill="#005FB7"/>
<path id="Vector_4" d="M17.2113 14.4486C17.2113 15.921 17.2049 17.3944 17.2167 18.8669C17.2195 19.1498 17.1656 19.2621 16.8479 19.2521C16.0136 19.2265 15.1774 19.2338 14.343 19.2493C14.0865 19.2539 14.0098 19.1827 14.0108 18.9216C14.019 15.9457 14.019 12.9697 14.0108 9.99468C14.0108 9.74821 14.0619 9.65144 14.333 9.65692C15.1674 9.67518 16.0035 9.677 16.8379 9.65692C17.1355 9.64962 17.2204 9.73086 17.2177 10.0312C17.2021 11.5037 17.2104 12.9761 17.2104 14.4495L17.2113 14.4486Z" fill="#005FB7"/>
<path id="Vector_5" d="M21.7737 14.4366C21.7737 15.9091 21.7637 17.3825 21.7819 18.8549C21.7856 19.1781 21.6934 19.2612 21.3775 19.252C20.5733 19.2292 19.7681 19.2347 18.9639 19.2502C18.69 19.2557 18.5695 19.2146 18.5704 18.8896C18.5841 15.9292 18.5823 12.9688 18.5723 10.0074C18.5714 9.72168 18.6517 9.65047 18.9292 9.65686C19.7636 9.67512 20.5997 9.67786 21.4341 9.65686C21.729 9.64956 21.7819 9.7518 21.7792 10.0193C21.7673 11.4917 21.7737 12.9651 21.7737 14.4376V14.4366Z" fill="#005FB7"/>
<path id="Vector_6" d="M23.5999 6.58601C23.6081 6.20626 23.4465 5.95522 23.1033 5.79638C22.7327 5.62476 22.3693 5.43489 22.0033 5.25231C18.8347 3.66575 15.6661 2.08009 12.4976 0.491702C12.2027 0.343817 11.9234 0.248879 11.5929 0.415021C7.99166 2.22068 4.38766 4.01994 0.782739 5.8192C0.479666 5.96983 0.325391 6.19987 0.329043 6.54128C0.333607 7.01232 0.329043 7.48336 0.329043 7.95532C0.330869 8.80428 0.501575 8.97864 1.33868 8.97956C4.88061 8.98047 8.42254 8.97956 11.9645 8.97956C15.5064 8.97956 19.0483 8.97956 22.5903 8.97956C23.4255 8.97956 23.5962 8.80337 23.5981 7.9544C23.599 7.49797 23.5898 7.04245 23.5999 6.58601ZM11.9772 5.32169C11.6057 5.32899 11.3035 5.04966 11.2853 4.68177C11.2661 4.29289 11.561 3.97521 11.9489 3.96699C12.3205 3.95969 12.6226 4.23903 12.6409 4.60691C12.6601 4.99671 12.3652 5.31347 11.9772 5.32169Z" fill="#005FB7"/>
</g>
</svg>
