<svg width="63" height="19" viewBox="0 0 63 19" fill="none" xmlns="http://www.w3.org/2000/svg">
<g id="Group">
<path id="Vector" d="M56.6512 10.252L54.037 12.6841L53.9511 12.6184C54.2494 11.506 54.5477 10.3986 54.8511 9.29129C55.6095 6.53557 56.368 3.78491 57.1315 1.02918C57.1315 1.01907 57.1315 1.00896 57.1315 1.0039C57.1315 0.86738 57.2023 0.74097 57.3237 0.675238C57.5057 0.644899 57.5006 0.852211 57.5664 0.968507C57.9557 1.68651 58.249 2.45002 58.704 3.13263C59.1338 4.17425 59.6344 5.2108 60.1754 6.19679C60.2412 6.29792 60.2816 6.41422 60.2816 6.53557C60.2816 6.74288 60.1754 6.94008 59.9985 7.05132C58.8608 8.1081 57.7585 9.18511 56.6512 10.252Z" fill="#F07A25"/>
<path id="Vector_2" d="M56.651 10.2518C57.7634 9.18491 58.8657 8.1079 59.9933 7.05618C60.1702 6.94494 60.2764 6.74774 60.2764 6.54043C60.2764 6.41907 60.241 6.30278 60.1702 6.20165C59.6241 5.21566 59.1286 4.1791 58.6988 3.13749L59.4775 0.523346C59.8011 1.14528 60.0691 1.65597 60.327 2.17172C60.9793 3.47121 61.6164 4.78081 62.2939 6.07018C62.3849 6.19659 62.4304 6.34829 62.4304 6.50503C62.4304 6.76291 62.299 7.00561 62.0765 7.14214C60.2259 8.85625 58.4106 10.6108 56.5853 12.3502C56.469 12.5019 56.3122 12.6182 56.1302 12.6789C56.3628 11.885 56.5398 11.0709 56.651 10.2518Z" fill="#0C8D48"/>
<path id="Vector_3" fill-rule="evenodd" clip-rule="evenodd" d="M15.654 6.66709C16.0383 6.84407 16.2861 7.22835 16.2861 7.64803C16.2861 7.81994 16.2456 7.99186 16.1647 8.14355C15.8613 9.12955 15.6136 10.1307 15.3405 11.1218C15.2647 12.0622 14.4759 12.7853 13.5354 12.7853C13.4292 12.7853 13.323 12.7752 13.2169 12.76C9.03525 12.76 4.85868 12.7651 0.677065 12.7701C0.348401 12.7701 0.227048 12.7398 0.333232 12.3707C1.41024 8.55312 2.47208 4.73556 3.52886 0.917998C3.55414 0.690462 3.74628 0.513489 3.97382 0.513489C3.99405 0.513489 4.01933 0.513489 4.03955 0.518545C8.34252 0.528658 12.6506 0.523602 16.9535 0.533714C17.0142 0.523602 17.0749 0.513489 17.1356 0.513489C17.6159 0.513489 18.0002 0.902829 18.0002 1.37813C18.0002 1.49948 17.9749 1.61578 17.9243 1.72702C17.6007 3.00122 17.2468 4.26532 16.8777 5.52941C16.6805 6.08561 16.2254 6.51034 15.654 6.66709ZM0.914715 15.0758H1.40518L0.950109 16.977C0.884377 17.2602 0.894489 17.4726 0.99056 17.6141C1.08158 17.7557 1.25855 17.8265 1.51137 17.8265C1.76419 17.8265 1.96644 17.7557 2.12824 17.6141C2.29005 17.4726 2.40634 17.2602 2.47208 16.977L2.92715 15.0758H3.42267L2.95749 17.0225C2.85636 17.4473 2.67433 17.7608 2.41646 17.9731C2.15858 18.1855 1.81475 18.2866 1.39507 18.2866C0.975391 18.2866 0.687178 18.1804 0.530431 17.9731C0.373683 17.7658 0.348401 17.4473 0.449529 17.0225L0.914715 15.0758ZM25.8224 5.45356C27.2281 5.45356 28.6337 5.42828 30.0394 5.46873C30.0698 5.46873 30.1001 5.47379 30.1304 5.47379C30.4844 5.47379 30.7726 5.20074 30.7979 4.85186C31.1265 3.59788 31.4805 2.34895 31.7889 1.08992C31.799 0.766307 32.062 0.513489 32.3805 0.513489C32.426 0.513489 32.4665 0.518545 32.512 0.528658C32.7446 0.543827 32.9772 0.55394 33.2148 0.55394C33.4423 0.55394 33.6749 0.543827 33.9025 0.528658C34.2766 0.508432 34.3626 0.619673 34.2564 0.988788C33.7255 2.86976 33.2199 4.76084 32.7041 6.64181C32.2086 8.45705 31.703 10.2723 31.2226 12.0926C31.2125 12.4718 30.9041 12.7752 30.5248 12.7752C30.4692 12.7752 30.4136 12.7701 30.358 12.755C30.1254 12.7347 29.8928 12.7246 29.6602 12.7246C29.4478 12.7246 29.2355 12.7347 29.0231 12.7499C28.6641 12.7651 28.6085 12.6488 28.7045 12.31C29.0888 10.9953 29.4326 9.67563 29.8119 8.35592C29.9231 7.97164 29.8726 7.81489 29.4175 7.81994C26.5556 7.84017 23.6886 7.84017 20.8267 7.825C20.7964 7.81994 20.766 7.81994 20.7357 7.81994C20.4222 7.81994 20.1643 8.06265 20.1492 8.37615C19.8154 9.70092 19.4261 11.0156 19.0772 12.3353C19.057 12.5729 18.8547 12.76 18.612 12.76C18.5817 12.76 18.5513 12.755 18.521 12.7499C18.2783 12.7347 18.0255 12.7297 17.7828 12.7297C17.53 12.7297 17.2771 12.7398 17.0294 12.755C16.5086 12.7904 16.5945 12.5224 16.6855 12.1988C17.2468 10.161 17.8081 8.11827 18.3643 6.08055C18.8345 4.36644 19.3047 2.65233 19.7649 0.938224C19.78 0.705631 19.9722 0.523602 20.2048 0.523602C20.225 0.523602 20.2503 0.523602 20.2705 0.528658C20.8014 0.55394 21.3374 0.55394 21.8683 0.528658C22.2374 0.513489 22.2779 0.650011 22.1869 0.973619C21.8076 2.32367 21.4588 3.68383 21.0694 5.03388C20.9632 5.39289 21.0542 5.46368 21.393 5.45862C22.8695 5.44345 24.3459 5.45356 25.8224 5.45356ZM37.2093 0.569109C37.3863 0.569109 37.5633 0.569109 37.7403 0.569109C38.4482 0.569109 38.4532 0.569109 38.2712 1.22138C37.2801 4.8114 36.2891 8.40648 35.293 11.9965C35.0705 12.8005 35.0604 12.8005 34.2362 12.8005C33.8469 12.8005 33.4525 12.7904 33.0631 12.8055C32.7142 12.8207 32.6434 12.7044 32.7395 12.3606C33.6851 8.99302 34.6154 5.62042 35.5458 2.24782C35.6621 1.89388 35.7582 1.53488 35.829 1.17082C35.829 1.1607 35.829 1.15565 35.829 1.14554C35.829 0.806758 36.102 0.538771 36.4408 0.538771C36.5015 0.538771 36.5672 0.548883 36.6228 0.569109C36.729 0.579222 36.8402 0.579222 36.9515 0.579222C37.0324 0.574165 37.1234 0.574165 37.2093 0.569109ZM50.902 7.13228C50.4924 7.49634 50.0829 7.85028 49.6834 8.2194C48.1513 9.63013 46.6294 11.0409 45.1023 12.4566C44.8495 12.6943 44.7181 12.7347 44.5209 12.3858C43.3933 10.4088 42.2455 8.44694 41.1027 6.48001C41.0674 6.42944 41.0218 6.37888 40.9763 6.33843C40.8044 6.55585 40.6932 6.82384 40.6679 7.10194C40.1875 8.81099 39.7224 10.5251 39.2673 12.2443C39.2572 12.5375 39.0195 12.7701 38.7263 12.7701C38.6909 12.7701 38.6555 12.7651 38.6201 12.76C38.1094 12.7196 37.5886 12.7449 37.0728 12.755C36.8352 12.76 36.7037 12.7246 36.7897 12.4212C37.8616 8.55312 38.9285 4.67994 39.9903 0.806758C40.0156 0.766307 40.046 0.725856 40.0814 0.690462C40.2887 0.877547 40.4555 1.10508 40.5718 1.3579C42.018 3.76474 43.459 6.17157 44.9001 8.58346C45.2237 9.12449 45.2136 9.11438 45.699 8.69975C48.3081 6.47495 50.9172 4.25015 53.5364 2.03546C54.0622 1.5905 54.583 1.14048 55.1544 0.655067C55.1645 0.715744 55.1696 0.781476 55.1696 0.847209C55.1696 1.04441 55.119 1.24161 55.028 1.41352C54.0369 5.04905 53.0307 8.67953 52.0447 12.3151C52.0296 12.5729 51.8121 12.7752 51.5543 12.7752C51.5239 12.7752 51.4936 12.7701 51.4683 12.7651C51.2155 12.7499 50.9576 12.7449 50.7048 12.7449C50.4621 12.7449 50.2143 12.7499 49.9716 12.7651C49.5469 12.7904 49.5115 12.6336 49.6177 12.2645C50.0677 10.6768 50.4975 9.07898 50.9323 7.48622C50.9576 7.44072 50.9728 7.39015 50.9728 7.33959C50.9728 7.25363 50.9475 7.18284 50.902 7.13228ZM59.8922 18.2057L60.6406 15.0758H62.3446L62.2384 15.5056H61.0299L60.8428 16.2894H62.0513L61.9451 16.7343H60.7366L60.4939 17.7456H61.7024L61.5962 18.2007H59.8922V18.2057ZM59.8467 15.8343C59.7355 15.7129 59.6091 15.6219 59.4675 15.5612C59.3259 15.5006 59.1692 15.4702 58.9972 15.4702C58.6635 15.4702 58.3652 15.5815 58.1023 15.7989C57.8393 16.0214 57.6674 16.3045 57.5865 16.6534C57.5056 16.9922 57.541 17.2703 57.6927 17.4877C57.8444 17.7052 58.0719 17.8164 58.3854 17.8164C58.5675 17.8164 58.7444 17.7861 58.9265 17.7153C59.1034 17.6495 59.2855 17.5484 59.4675 17.4169L59.331 17.9934C59.1742 18.0945 59.0124 18.1653 58.8405 18.2158C58.6736 18.2664 58.4967 18.2866 58.3146 18.2866C58.082 18.2866 57.8747 18.2462 57.6978 18.1703C57.5208 18.0945 57.3742 17.9782 57.2579 17.8214C57.1466 17.6748 57.0708 17.4978 57.0404 17.2956C57.0101 17.0933 57.0202 16.8759 57.0758 16.6433C57.1314 16.4158 57.2225 16.1984 57.3489 15.9961C57.4753 15.7938 57.6371 15.6169 57.8242 15.4652C58.0113 15.3135 58.2135 15.1921 58.4309 15.1163C58.6433 15.0354 58.8658 15 59.0933 15C59.2753 15 59.4372 15.0253 59.5888 15.0809C59.7405 15.1365 59.8771 15.2174 60.0035 15.3236L59.8467 15.8343ZM56.0949 18.2057L55.9432 17.4018H54.7347L54.1886 18.2057H53.6678L55.923 14.9494L56.6208 18.2057H56.0949ZM55.0179 16.977H55.8674L55.7258 16.2641C55.7207 16.2186 55.7106 16.168 55.7056 16.1073C55.7005 16.0467 55.6954 15.9809 55.6954 15.9101C55.66 15.9759 55.6297 16.0416 55.5943 16.1023C55.564 16.163 55.5286 16.2135 55.4982 16.2641L55.0179 16.977ZM51.9942 18.2057L52.7425 15.0758H54.4465L54.3454 15.5056H53.1369L52.9498 16.2843H54.1583L54.0521 16.7293H52.8436L52.4897 18.2007H51.9942V18.2057ZM50.4014 16.8051L50.0677 18.2057H49.6025L50.3509 15.0758H51.0436C51.2458 15.0758 51.4026 15.091 51.5037 15.1163C51.6099 15.1416 51.6958 15.1871 51.7565 15.2528C51.8324 15.3287 51.8829 15.4247 51.9032 15.5461C51.9234 15.6674 51.9183 15.7989 51.888 15.9405C51.8273 16.1933 51.7211 16.3854 51.5694 16.5321C51.4177 16.6737 51.2205 16.7596 50.9829 16.7849L51.6908 18.2108H51.1295L50.452 16.8102H50.4014V16.8051ZM50.5278 16.4107H50.6188C50.8818 16.4107 51.0638 16.3804 51.1649 16.3146C51.2661 16.254 51.3368 16.1427 51.3722 15.9809C51.4127 15.809 51.3975 15.6877 51.3217 15.6169C51.2458 15.5461 51.084 15.5107 50.8363 15.5107H50.7452L50.5278 16.4107ZM47.3322 18.2057L48.0805 15.0758H49.7845L49.6784 15.5056H48.4699L48.2828 16.2894H49.4913L49.3851 16.7343H48.1766L47.9339 17.7456H49.1424L49.0311 18.2007H47.3322V18.2057ZM46.7912 15.5056L46.144 18.2057H45.6484L46.2956 15.5056H45.4866L45.5878 15.0758H47.7013L47.6002 15.5056H46.7912ZM41.7297 18.2057L42.5084 14.9494L43.9899 16.8658C44.0304 16.9214 44.0708 16.977 44.1062 17.0377C44.1467 17.0984 44.1871 17.1692 44.2276 17.245L44.7484 15.0758H45.2085L44.4298 18.3271L42.918 16.3804C42.8775 16.3298 42.8421 16.2742 42.8067 16.2135C42.7714 16.1528 42.741 16.0922 42.7107 16.0315L42.1899 18.2057H41.7297ZM40.5213 18.2057L41.2696 15.0758H41.7651L41.0168 18.2057H40.5213ZM36.8605 17.5787L37.3004 17.3917C37.3054 17.5332 37.3459 17.6394 37.4318 17.7102C37.5127 17.781 37.6341 17.8214 37.7908 17.8214C37.9375 17.8214 38.0639 17.781 38.1701 17.695C38.2762 17.6091 38.347 17.4978 38.3824 17.3563C38.4279 17.1742 38.3167 17.0074 38.0538 16.8658C38.0184 16.8456 37.988 16.8304 37.9678 16.8203C37.6695 16.6534 37.4824 16.5017 37.4065 16.3652C37.3256 16.2287 37.3105 16.0618 37.361 15.8646C37.4217 15.6118 37.5582 15.4045 37.7605 15.2478C37.9678 15.091 38.2054 15.0101 38.4835 15.0101C38.706 15.0101 38.8881 15.0556 39.0145 15.1466C39.1459 15.2376 39.2167 15.3641 39.2369 15.5309L38.8021 15.7382C38.7667 15.6371 38.7161 15.5663 38.6504 15.5208C38.5897 15.4753 38.5088 15.4551 38.4178 15.4551C38.2864 15.4551 38.1701 15.4905 38.074 15.5612C37.9779 15.632 37.9172 15.7281 37.8869 15.8495C37.8414 16.0365 37.9729 16.2135 38.2762 16.3753C38.3015 16.3905 38.3167 16.3956 38.3319 16.4057C38.5998 16.5472 38.7718 16.6888 38.8527 16.8253C38.9336 16.9619 38.9487 17.1338 38.8982 17.336C38.8274 17.6344 38.6807 17.867 38.4583 18.0439C38.2358 18.2158 37.9678 18.3069 37.6594 18.3069C37.4015 18.3069 37.1992 18.2462 37.0627 18.1248C36.9262 17.9833 36.8554 17.8063 36.8605 17.5787ZM36.3447 15.5056L35.6975 18.2057H35.202L35.8492 15.5056H35.0402L35.1413 15.0758H37.2549L37.1537 15.5056H36.3447ZM31.2883 18.2057L32.067 14.9494L33.5485 16.8658C33.589 16.9214 33.6294 16.977 33.6699 17.0377C33.7103 17.0984 33.7508 17.1692 33.7912 17.245L34.312 15.0758H34.7722L33.9935 18.3271L32.4816 16.3804C32.4412 16.3298 32.4007 16.2742 32.3704 16.2135C32.335 16.1528 32.3047 16.0922 32.2743 16.0315L31.7535 18.2057H31.2883ZM29.013 18.2057L29.7613 15.0758H31.4653L31.3642 15.5056H30.1557L29.9686 16.2894H31.1771L31.0709 16.7343H29.8624L29.6197 17.7456H30.8282L30.717 18.2007H29.013V18.2057ZM28.1888 16.6585C28.1888 16.6332 28.1938 16.5675 28.209 16.4562C28.2191 16.3652 28.2292 16.2894 28.2343 16.2287C28.204 16.2995 28.1686 16.3703 28.1281 16.4411C28.0877 16.5118 28.0421 16.5877 27.9916 16.6585L26.7932 18.3271L26.4039 16.6231C26.3887 16.5523 26.3735 16.4866 26.3685 16.4208C26.3584 16.3551 26.3533 16.2894 26.3533 16.2287C26.3381 16.2944 26.3129 16.3602 26.2876 16.436C26.2623 16.5068 26.232 16.5826 26.1915 16.6635L25.4937 18.2057H25.0387L26.5404 14.9444L26.9702 16.9214C26.9753 16.9518 26.9854 17.0023 26.9955 17.0782C27.0056 17.1489 27.0208 17.24 27.0359 17.3461C27.0865 17.2551 27.1573 17.1439 27.2534 17.0023C27.2786 16.9669 27.2989 16.9366 27.309 16.9164L28.659 14.9444L28.6135 18.2057H28.1584L28.1888 16.6585ZM23.4611 18.2057L23.8049 16.7748L23.183 15.0758H23.7038L24.0881 16.1377C24.0982 16.163 24.1083 16.1984 24.1184 16.2439C24.1285 16.2894 24.1437 16.3349 24.1538 16.3854C24.1841 16.3349 24.2145 16.2894 24.2499 16.2439C24.2802 16.1984 24.3156 16.1579 24.3459 16.1225L25.251 15.0758H25.7466L24.2903 16.7748L23.9465 18.2057H23.4611ZM22.2273 18.2057L22.0756 17.4018H20.8672L20.3211 18.2057H19.8003L22.0554 14.9494L22.7532 18.2057H22.2273ZM21.1503 16.977H21.9998L21.8582 16.2641C21.8531 16.2186 21.843 16.168 21.838 16.1073C21.8329 16.0467 21.8279 15.9809 21.8279 15.9101C21.7925 15.9759 21.7621 16.0416 21.7267 16.1023C21.6913 16.163 21.661 16.2135 21.6307 16.2641L21.1503 16.977ZM18.9761 16.8001L18.6373 18.2057H18.1721L18.9205 15.0758H19.6688C19.8913 15.0758 20.0531 15.086 20.1492 15.1112C20.2452 15.1365 20.3312 15.177 20.3919 15.2326C20.4677 15.3034 20.5233 15.4045 20.5486 15.5259C20.5739 15.6472 20.5688 15.7837 20.5334 15.9304C20.498 16.077 20.4374 16.2135 20.3514 16.3399C20.2654 16.4663 20.1694 16.5624 20.0581 16.6332C19.9671 16.6888 19.866 16.7293 19.7548 16.7546C19.6435 16.7798 19.4767 16.7899 19.2542 16.7899H18.9761V16.8001ZM19.1025 16.3854H19.2289C19.5019 16.3854 19.6941 16.3551 19.8003 16.2944C19.9064 16.2337 19.9772 16.1276 20.0177 15.9708C20.0581 15.804 20.0379 15.6877 19.957 15.6169C19.8761 15.5511 19.7042 15.5157 19.4413 15.5157H19.3148L19.1025 16.3854ZM13.7276 18.2057L14.4759 15.0758H15.1433C15.5782 15.0758 15.8765 15.0961 16.0434 15.1416C16.2102 15.1871 16.3468 15.2629 16.4529 15.3691C16.5945 15.5056 16.6855 15.6877 16.726 15.9C16.7664 16.1174 16.7513 16.3652 16.6855 16.6433C16.6198 16.9214 16.5136 17.1692 16.372 17.3815C16.2305 17.5939 16.0535 17.7759 15.8462 17.9125C15.6894 18.0186 15.5175 18.0945 15.3355 18.14C15.1535 18.1855 14.8855 18.2057 14.5265 18.2057H13.7276ZM14.3343 17.7456H14.7489C14.9765 17.7456 15.1535 17.7304 15.2748 17.7001C15.3962 17.6698 15.5074 17.6141 15.6136 17.5433C15.7552 17.4422 15.8715 17.3158 15.9625 17.1692C16.0585 17.0175 16.1293 16.8456 16.1748 16.6433C16.2204 16.4411 16.2355 16.2691 16.2153 16.1175C16.1951 15.9658 16.1394 15.8393 16.0484 15.7382C15.9776 15.6624 15.8917 15.6118 15.7754 15.5815C15.6642 15.5511 15.4771 15.536 15.2242 15.536H14.8602L14.3343 17.7456ZM11.4572 18.2057L12.2056 15.0758H13.9096L13.8085 15.5056H12.6L12.4129 16.2894H13.6214L13.5152 16.7343H12.3067L12.064 17.7456H13.2725L13.1612 18.2007H11.4572V18.2057ZM10.2488 18.2057L10.9971 15.0758H11.4926L10.7443 18.2057H10.2488ZM7.99869 18.2057L8.74703 15.0758H10.451L10.3499 15.5056H9.14143L8.95435 16.2843H10.1628L10.0566 16.7293H8.84816L8.49422 18.2007H7.99869V18.2057ZM6.79022 18.2057L7.53856 15.0758H8.03409L7.28574 18.2057H6.79022ZM3.35189 18.2057L4.13057 14.9494L5.61208 16.8658C5.65253 16.9214 5.69299 16.977 5.73344 17.0377C5.77389 17.0984 5.81434 17.1692 5.85479 17.245L6.3756 15.0758H6.83573L6.05704 18.3271L4.54519 16.3804C4.50474 16.3298 4.46934 16.2742 4.43395 16.2135C4.39855 16.1528 4.36822 16.0922 4.33788 16.0315L3.81707 18.2057H3.35189ZM5.88513 2.92032C8.61051 2.95572 11.3258 2.91527 14.0461 2.91527C14.5265 2.91527 14.9158 3.30461 14.9158 3.78496C14.9158 3.90631 14.8905 4.02767 14.84 4.14396C14.7034 4.90242 14.0411 5.45862 13.2674 5.45862C10.5774 5.45356 7.88239 5.45356 5.18735 5.46873C4.74239 5.46873 4.72722 5.29176 4.83846 4.94793C5.01543 4.44229 5.16207 3.9316 5.27331 3.41079C5.27836 3.13269 5.5059 2.91527 5.784 2.91527C5.8194 2.91021 5.84973 2.91527 5.88513 2.92032ZM4.39855 7.83006C7.10371 7.83006 9.81393 7.83511 12.5241 7.84523C13.4545 7.85028 13.8236 8.70481 13.2775 9.58462C12.9843 10.0801 12.4534 10.3835 11.8769 10.3835C9.22233 10.3835 6.57279 10.3532 3.9182 10.3886C3.50863 10.3936 3.31649 10.338 3.48335 9.86272C3.67044 9.3318 3.8019 8.77054 3.93842 8.22445C3.97382 7.99692 4.17102 7.83006 4.39855 7.83006Z" fill="#66686C"/>
</g>
</svg>
