<svg width="127" height="44" viewBox="0 0 127 44" fill="none" xmlns="http://www.w3.org/2000/svg">
<path d="M0 22H126.227" stroke="#939393" stroke-width="1.4344" stroke-dasharray="4.3 4.3"/>
<path d="M63.516 43.0321C75.399 43.0321 85.0321 33.399 85.0321 21.516C85.0321 9.63306 75.399 0 63.516 0C51.6331 0 42 9.63306 42 21.516C42 33.399 51.6331 43.0321 63.516 43.0321Z" fill="#93288E"/>
<path d="M57.2886 29.4667C56.8827 28.783 56.525 28.0717 56.2184 27.338C55.8216 26.3713 55.5183 25.3688 55.3121 24.3444C55.2834 24.201 55.3207 24.1651 55.4469 24.1206C58.0709 23.1863 60.6937 22.2478 63.3158 21.305C63.408 21.269 63.5107 21.269 63.603 21.305C66.2279 22.2115 68.8546 23.1137 71.4834 24.0116C71.6598 24.0719 71.6353 24.1551 71.6095 24.2885C71.3221 25.7423 70.8396 27.1508 70.1751 28.4755C70.1536 28.5185 70.1351 28.563 70.1078 28.619C70.3861 28.6477 70.6529 28.6663 70.9168 28.7021C71.372 28.7763 71.8155 28.9094 72.2363 29.098C72.8289 29.351 73.467 29.4808 74.1113 29.4796C74.2109 29.4716 74.3106 29.4931 74.3981 29.5413C74.4724 29.5798 74.5316 29.6421 74.5662 29.7183C74.6008 29.7946 74.6089 29.8802 74.5889 29.9615C74.5733 30.0523 74.5249 30.1342 74.4531 30.1918C74.3812 30.2494 74.2908 30.2788 74.1988 30.2743C73.538 30.3033 72.8783 30.1918 72.2636 29.9472C71.4882 29.598 70.647 29.419 69.7965 29.4222C69.178 29.4351 68.5677 29.5656 67.9979 29.8067C66.8062 30.3165 65.4808 30.4242 64.2224 30.1136C63.9056 30.0255 63.5947 29.9172 63.2916 29.7894C62.6799 29.5391 62.0247 29.412 61.3638 29.4154C60.7029 29.4189 60.0492 29.5528 59.4402 29.8095C58.0994 30.3823 56.5941 30.4385 55.2144 29.9673C54.6466 29.7261 54.052 29.5541 53.4431 29.4552C53.2466 29.4408 53.0485 29.4365 52.8505 29.425C52.7968 29.427 52.7432 29.4182 52.693 29.399C52.6427 29.3799 52.5967 29.3508 52.5578 29.3137C52.5189 29.2765 52.4878 29.232 52.4664 29.1826C52.445 29.1333 52.4336 29.0801 52.4331 29.0263C52.434 28.9725 52.4458 28.9195 52.4678 28.8703C52.4898 28.8212 52.5214 28.777 52.5609 28.7405C52.6005 28.704 52.6471 28.676 52.6979 28.658C52.7486 28.6401 52.8024 28.6326 52.8561 28.6361C53.5085 28.6181 54.1579 28.7298 54.7668 28.9646C55.5535 29.3361 56.4196 29.5086 57.2886 29.4667Z" fill="white"/>
<path d="M71.7674 23.2801L66.5551 21.4885C65.6055 21.1629 64.6557 20.8416 63.709 20.5102C63.5389 20.4461 63.3514 20.4461 63.1813 20.5102C60.5821 21.4411 57.9787 22.3663 55.381 23.3044C55.1716 23.3804 55.1229 23.3432 55.0942 23.1395C55.0196 22.5169 54.9606 21.8944 54.9405 21.2676C54.9274 21.1567 54.9544 21.0448 55.0165 20.952C55.0785 20.8592 55.1717 20.7915 55.2791 20.7612C57.9261 19.7428 60.572 18.7215 63.217 17.6973C63.2927 17.6659 63.3739 17.6497 63.4558 17.6497C63.5378 17.6497 63.619 17.6659 63.6947 17.6973C66.3311 18.7196 68.9687 19.739 71.607 20.7555C71.7193 20.7852 71.817 20.8546 71.8819 20.9509C71.9468 21.0472 71.9743 21.1638 71.9596 21.2791C71.931 21.8729 71.8967 22.4653 71.8164 23.0534C71.8078 23.1266 71.786 23.1969 71.7674 23.2801Z" fill="white"/>
<path d="M58.2168 18.7695C58.2168 17.9619 58.2168 17.1787 58.2168 16.3955C58.2158 16.1584 58.3034 15.9294 58.4626 15.7537C58.6219 15.578 58.8411 15.4682 59.0772 15.446C59.1754 15.436 59.2742 15.4322 59.3728 15.4345H67.6364C68.4353 15.4345 68.7941 15.796 68.7941 16.5992C68.7941 17.2677 68.7941 17.9361 68.7941 18.6074C68.7941 18.8096 68.7438 18.8154 68.5745 18.7509C67.0584 18.1599 65.5364 17.5832 64.0217 16.9908C63.8232 16.9119 63.6112 16.8735 63.3976 16.8777C63.1841 16.8818 62.9734 16.9286 62.7781 17.0152C61.2892 17.6076 59.7916 18.1756 58.297 18.7537C58.2705 18.7602 58.2438 18.7656 58.2168 18.7695Z" fill="white"/>
<path d="M63.4707 14.6435C62.8209 14.6435 62.1699 14.6435 61.5201 14.6435C61.3666 14.6435 61.3049 14.6133 61.3107 14.4441C61.3236 14.0324 61.3107 13.6208 61.3107 13.2091C61.3107 12.8821 61.454 12.7443 61.7782 12.7443C62.9066 12.7443 64.0347 12.7443 65.1621 12.7443C65.4806 12.7443 65.6254 12.8878 65.6282 13.2163C65.6282 13.628 65.6282 14.0396 65.6282 14.4513C65.6282 14.6033 65.5909 14.6464 65.4374 14.6449C64.789 14.6378 64.1291 14.6435 63.4707 14.6435Z" fill="white"/>
</svg>
