<svg width="24" height="20" viewBox="0 0 24 20" fill="none" xmlns="http://www.w3.org/2000/svg">
<g id="Group 65">
<path id="Vector" d="M11.3875 7.6095C8.84156 7.6095 6.29491 7.60586 3.74899 7.6146C3.47598 7.61533 3.37405 7.58548 3.43521 7.26369C3.65653 6.11267 3.84363 4.9551 4.03875 3.79899C4.06787 3.62863 4.11373 3.55146 4.32049 3.58859C7.02076 4.07419 9.72321 4.54595 12.4242 5.02864C15.4936 5.57757 18.5615 6.13379 21.6309 6.68563C22.0706 6.76499 22.5103 6.84944 22.953 6.90914C23.1459 6.93535 23.1932 6.99796 23.159 7.18797C22.7506 9.47253 22.3494 11.7586 21.9468 14.0438C21.8624 14.5236 21.6192 14.7093 21.1373 14.6612C21.0412 14.6517 20.9451 14.6255 20.849 14.6248C20.5956 14.6219 20.5068 14.5214 20.509 14.2491C20.5235 12.5521 20.5104 10.8543 20.5192 9.15657C20.5221 8.62292 20.3554 8.18538 19.9193 7.86504C19.6084 7.63717 19.248 7.60878 18.8804 7.60878C16.3825 7.60878 13.8854 7.60878 11.3875 7.60878V7.6095Z" fill="#93288E"/>
<path id="Vector_2" d="M23.1772 6.13525C22.2373 5.96999 21.3564 5.81565 20.4762 5.66058C18.2994 5.27691 16.1212 4.89687 13.9451 4.5081C11.5666 4.08293 9.19031 3.6483 6.81256 3.22167C6.05177 3.0848 5.29025 2.94939 4.52509 2.83727C4.27829 2.80087 4.22951 2.7004 4.27319 2.482C4.35327 2.07939 4.4188 1.67315 4.49451 1.26982C4.58115 0.806796 4.90658 0.589843 5.36305 0.671383C7.63378 1.07908 9.90596 1.48386 12.1774 1.88938C14.5675 2.316 16.9577 2.74409 19.3485 3.16926C20.5374 3.38039 21.727 3.59006 22.9181 3.79318C23.4539 3.88418 23.6723 4.17831 23.5791 4.70686C23.5099 5.09999 23.4568 5.49531 23.3774 5.88627C23.3534 6.00348 23.3723 6.22844 23.178 6.13598L23.1772 6.13525Z" fill="#93288E"/>
<path id="Vector_3" d="M19.7053 9.20681C19.7053 8.58798 19.5254 8.4118 18.903 8.4118C12.9848 8.41107 7.06665 8.41107 1.14849 8.4118C0.507094 8.4118 0.327999 8.59162 0.327999 9.23229C0.327271 12.3606 0.327271 15.4897 0.327271 18.6181C0.327271 19.2464 0.518015 19.4335 1.15504 19.4335C4.11449 19.4335 7.0732 19.4335 10.0326 19.4335C12.9921 19.4335 15.9508 19.4335 18.9103 19.4335C19.5203 19.4335 19.7053 19.25 19.706 18.6297C19.7074 15.489 19.7074 12.3475 19.706 9.20681H19.7053ZM4.52 17.8369C3.80507 17.8362 3.08942 17.8332 2.37449 17.8383C2.08328 17.8405 1.88744 17.7073 1.89472 17.4212C1.90127 17.1584 2.09056 17.0237 2.36503 17.0273C2.71667 17.0324 3.06831 17.0288 3.41922 17.0288C3.7825 17.0288 4.14652 17.0288 4.50981 17.0288C4.7901 17.0288 4.99249 17.1431 4.98448 17.4474C4.9772 17.7277 4.785 17.8369 4.51927 17.8369H4.52ZM4.85052 15.7758C4.62047 15.7758 4.39041 15.7736 4.16108 15.7736C3.93757 15.7736 3.71334 15.7758 3.48984 15.7766C3.26633 15.7773 3.0421 15.7766 2.81859 15.7722C2.12405 15.7569 1.72436 15.3434 1.71927 14.6518C1.71708 14.3132 1.71271 13.974 1.72072 13.6354C1.73455 13.0756 2.10003 12.6475 2.65842 12.6315C3.67403 12.6031 4.69109 12.606 5.70596 12.6315C6.21049 12.6446 6.56941 12.9846 6.62255 13.4956C6.66987 13.9499 6.67279 14.4166 6.62474 14.8709C6.56358 15.4438 6.15297 15.7591 5.53997 15.7715C5.30991 15.7758 5.08058 15.7766 4.85052 15.7758ZM8.85324 17.8376C8.50233 17.834 8.15142 17.8369 7.80051 17.8369C7.47362 17.8369 7.14746 17.8325 6.82058 17.8383C6.53737 17.8434 6.30586 17.7816 6.28839 17.4437C6.27382 17.1671 6.45947 17.031 6.8395 17.0295C7.50492 17.028 8.17034 17.0317 8.83576 17.0273C9.1197 17.0259 9.35849 17.0907 9.36577 17.4248C9.37305 17.7604 9.14154 17.8405 8.85324 17.8376ZM13.2753 17.8383C12.912 17.8318 12.5487 17.8369 12.1847 17.8369C11.8331 17.8369 11.4822 17.8362 11.1305 17.8369C10.8619 17.8369 10.674 17.7226 10.6704 17.4408C10.666 17.1598 10.848 17.031 11.1174 17.0302C11.844 17.0273 12.5713 17.0302 13.2986 17.0288C13.5701 17.0288 13.7602 17.1576 13.7616 17.427C13.7631 17.7175 13.5651 17.8434 13.276 17.8383H13.2753ZM17.6777 17.8376C16.9628 17.8347 16.2471 17.8347 15.5322 17.8376C15.2461 17.8391 15.0466 17.7182 15.0524 17.4212C15.0582 17.146 15.2519 17.0273 15.5213 17.028C15.8846 17.0295 16.2486 17.028 16.6119 17.028C16.9635 17.028 17.3151 17.0295 17.666 17.028C17.9514 17.0266 18.1509 17.1504 18.1451 17.4467C18.1393 17.7219 17.9478 17.8383 17.677 17.8376H17.6777Z" fill="#93288E"/>
<path id="Vector_4" d="M4.17417 14.9677C3.73735 14.9677 3.30126 14.9612 2.86444 14.9706C2.61764 14.9757 2.50843 14.8774 2.5179 14.6263C2.52882 14.3358 2.52736 14.0439 2.5179 13.7534C2.51062 13.508 2.61327 13.3974 2.8608 13.3988C3.74609 13.4032 4.63137 13.4017 5.51666 13.4003C5.74235 13.4003 5.8501 13.5015 5.845 13.7323C5.83845 14.0351 5.83699 14.3387 5.845 14.6416C5.85155 14.8745 5.74672 14.9721 5.51884 14.9699C5.07037 14.9648 4.62191 14.9685 4.17271 14.9685L4.17417 14.9677Z" fill="#93288E"/>
</g>
</svg>
