<svg width="46" height="19" viewBox="0 0 46 19" fill="none" xmlns="http://www.w3.org/2000/svg">
<g id="upi icons">
<path id="Vector" d="M21.8946 9.19439V14.4852H20.1987V1.40039H24.6079C25.6819 1.40039 26.6994 1.79862 27.4908 2.5382C28.2821 3.22089 28.6778 4.24491 28.6778 5.32583C28.6778 6.40675 28.2821 7.37389 27.4908 8.11347C26.6994 8.85304 25.7384 9.25128 24.6079 9.25128L21.8946 9.19439ZM21.8946 2.99332V7.54456H24.7209C25.3427 7.54456 25.9645 7.317 26.3602 6.86188C27.2646 6.00852 27.2646 4.58626 26.4167 3.7329L26.3602 3.67601C25.908 3.22089 25.3427 2.93643 24.7209 2.99332H21.8946Z" fill="#5F6368"/>
<path id="Vector_2" d="M32.5782 5.26883C33.8218 5.26883 34.7828 5.61017 35.5176 6.29286C36.2525 6.97554 36.5916 7.88579 36.5916 9.0236V14.4851H35.0089V13.2335H34.9523C34.274 14.2575 33.3131 14.7695 32.1825 14.7695C31.2216 14.7695 30.3736 14.4851 29.6953 13.9162C29.0735 13.3473 28.6778 12.5508 28.6778 11.6975C28.6778 10.7872 29.017 10.0476 29.6953 9.47873C30.3736 8.90982 31.3346 8.68226 32.4651 8.68226C33.4826 8.68226 34.274 8.85293 34.8958 9.25116V8.85293C34.8958 8.28403 34.6697 7.71512 34.2175 7.37378C33.7653 6.97554 33.2 6.74798 32.5782 6.74798C31.6172 6.74798 30.8824 7.14622 30.3736 7.94268L28.9039 7.03243C29.8084 5.83773 30.9954 5.26883 32.5782 5.26883ZM30.4302 11.7543C30.4302 12.2095 30.6563 12.6077 30.9954 12.8353C31.3911 13.1197 31.8433 13.2904 32.2956 13.2904C32.9739 13.2904 33.6522 13.0059 34.161 12.4939C34.7262 11.9819 35.0089 11.3561 35.0089 10.6734C34.5001 10.2752 33.7653 10.0476 32.8043 10.0476C32.126 10.0476 31.5607 10.2183 31.1085 10.5596C30.6563 10.8441 30.4302 11.2423 30.4302 11.7543Z" fill="#5F6368"/>
<path id="Vector_3" d="M45.749 5.55328L40.1528 18.4674H38.457L40.5485 13.9731L36.8743 5.61017H38.6831L41.3399 12.0388H41.3964L43.9967 5.61017H45.749V5.55328Z" fill="#5F6368"/>
<path id="Vector_4" d="M15.168 8.05658C15.168 7.54457 15.1115 7.03255 15.055 6.52054H7.98909V9.42195H12.0025C11.8329 10.3322 11.3242 11.1856 10.5328 11.6976V13.575H12.9635C14.3767 12.2665 15.168 10.3322 15.168 8.05658Z" fill="#4285F4"/>
<path id="Vector_5" d="M7.98893 15.3957C10.0239 15.3957 11.7197 14.713 12.9633 13.5752L10.5327 11.6978C9.85433 12.1529 9.00642 12.4374 7.98893 12.4374C6.06701 12.4374 4.37119 11.1289 3.80592 9.30838H1.31873V11.2427C2.61885 13.8027 5.16257 15.3957 7.98893 15.3957Z" fill="#34A853"/>
<path id="Vector_6" d="M3.80603 9.30841C3.46687 8.39816 3.46687 7.37413 3.80603 6.40699V4.47272H1.31883C0.244817 6.57767 0.244817 9.08085 1.31883 11.2427L3.80603 9.30841Z" fill="#FBBC04"/>
<path id="Vector_7" d="M7.98899 3.3345C9.063 3.3345 10.0805 3.73274 10.8719 4.47231L13.0199 2.31048C11.6633 1.05889 9.85438 0.319309 8.04551 0.376199C5.21915 0.376199 2.6189 1.96913 1.37531 4.5292L3.8625 6.46348C4.37125 4.64298 6.06706 3.3345 7.98899 3.3345Z" fill="#EA4335"/>
</g>
</svg>
