<svg width="223" height="56" viewBox="0 0 223 56" fill="none" xmlns="http://www.w3.org/2000/svg">
<g id="Group 24106">
<g id="Group 24104">
<g id="Group">
<path id="Vector" d="M89.5429 23.3724C89.2937 24.7219 88.895 25.8056 88.3467 26.603C87.8683 27.3187 87.1705 27.881 86.3033 28.2593C85.4261 28.6478 84.4293 28.842 83.3427 28.842C81.1597 28.842 79.3754 28.0548 78.0497 26.5008C77.332 25.6625 76.7837 24.6197 76.4049 23.3826C76.0261 22.1557 75.8368 20.7449 75.8368 19.2113C75.8368 17.4017 76.1159 15.7659 76.6541 14.3448C77.0429 13.3327 77.5413 12.4228 78.1394 11.6356C78.7375 10.8483 79.4053 10.2247 80.1031 9.80552C80.9006 9.325 81.8575 9.07964 82.944 9.07964C83.6717 9.07964 84.3196 9.20232 84.8978 9.43746C85.4759 9.67261 86.0441 10.0611 86.5824 10.5825C87.2901 11.2675 87.8384 12.0343 88.2072 12.8624C88.4165 13.3225 88.6956 14.0279 89.0246 14.9583C89.0744 15.0912 89.1541 15.2854 89.2439 15.5512H89.4333L89.2638 9.17164H89.0445C88.9548 9.37612 88.885 9.52948 88.8152 9.62149C88.5262 10.01 88.1175 10.0509 87.5393 9.82596L86.373 9.42724C85.0971 8.97739 83.881 8.7627 82.7447 8.7627C81.5485 8.7627 80.3423 8.96718 79.1462 9.37612C77.96 9.78507 76.9233 10.3474 76.066 11.0426C74.9596 11.9525 74.0824 13.1589 73.4643 14.6515C72.8463 16.1442 72.5273 17.7902 72.5273 19.5589C72.5273 21.8695 73.0656 23.8836 74.1322 25.5398C75.1988 27.196 76.694 28.3615 78.578 28.9954C79.7642 29.3941 81.0202 29.5884 82.326 29.5884C83.7215 29.5884 84.9576 29.3634 86.0142 28.9034C87.0708 28.4535 87.9081 27.789 88.4963 26.9404C89.1143 26.0612 89.523 24.865 89.7024 23.3724L89.523 23.3417L89.5429 23.3724Z" fill="#92278F"/>
<path id="Vector_2" d="M110.476 12.5246C109.459 11.3386 108.253 10.398 106.898 9.75394C105.542 9.09962 104.126 8.77246 102.681 8.77246C101.545 8.77246 100.398 8.97693 99.2819 9.38588C98.1655 9.79483 97.0989 10.398 96.132 11.1546C94.8361 12.1872 93.8293 13.414 93.1515 14.7942C92.4737 16.1744 92.1348 17.6978 92.1348 19.3233C92.1348 20.5604 92.3541 21.7668 92.7628 22.9118C93.1814 24.0569 93.7895 25.0895 94.567 25.9892C95.5538 27.1342 96.75 28.0441 98.1057 28.6678C99.4713 29.2914 100.917 29.6084 102.412 29.6084C103.907 29.6084 105.402 29.2812 106.788 28.6371C108.173 27.993 109.39 27.0627 110.406 25.8869C111.234 24.9464 111.872 23.8831 112.3 22.7278C112.739 21.5828 112.948 20.3661 112.948 19.1291C112.948 16.6754 112.111 14.4466 110.456 12.5143L110.476 12.5246ZM107.396 26.7662C106.708 27.6556 105.971 28.2997 105.203 28.6882C104.435 29.087 103.538 29.2812 102.532 29.2812C101.525 29.2812 100.638 29.0767 99.88 28.678C99.1124 28.2793 98.3848 27.6352 97.7069 26.756C96.1918 24.8032 95.4342 22.3802 95.4342 19.538C95.4342 17.9227 95.6435 16.3891 96.0522 14.9885C96.4609 13.5776 97.049 12.3712 97.8066 11.4C98.4446 10.5821 99.1423 9.98908 99.88 9.62103C100.628 9.25298 101.515 9.06895 102.532 9.06895C103.548 9.06895 104.465 9.25298 105.213 9.63126C105.971 9.99931 106.658 10.5923 107.276 11.4102C108.034 12.3917 108.622 13.598 109.041 15.0089C109.449 16.4096 109.669 17.9227 109.669 19.4971C109.669 22.37 108.901 24.8134 107.396 26.7764V26.7662Z" fill="#92278F"/>
<g id="Group_2">
<path id="Vector_3" d="M130.652 28.699C130.423 28.5763 130.173 28.3616 129.934 28.0446C129.635 27.6664 129.266 27.0632 128.838 26.235C128.409 25.4069 127.761 24.0983 126.914 22.3194C126.555 21.5424 126.276 20.9903 126.097 20.6938C125.917 20.3973 125.728 20.1417 125.508 19.9373C125.239 19.6817 124.821 19.4363 124.262 19.1909L124.033 19.0887L124.282 19.0376C124.97 18.8842 125.528 18.7206 125.927 18.5468C126.336 18.373 126.715 18.1481 127.043 17.8823C128.14 16.9826 128.698 15.7762 128.698 14.2835C128.698 13.2816 128.439 12.3819 127.941 11.6254C127.432 10.8688 126.705 10.2861 125.788 9.89757C124.96 9.56019 123.804 9.35572 122.349 9.29438C121.98 9.29438 121.222 9.27393 120.076 9.27393H113.268V9.44773C113.776 9.47841 114.205 9.56019 114.543 9.68288C114.902 9.81578 115.211 10.0305 115.471 10.3167C115.78 10.6337 115.999 11.0529 116.108 11.5436C116.218 12.0241 116.268 12.7807 116.268 13.7928V24.589C116.268 25.6012 116.218 26.3475 116.108 26.8382C115.999 27.329 115.79 27.7379 115.471 28.0651C115.211 28.3514 114.902 28.5558 114.553 28.6887C114.225 28.8216 113.796 28.9034 113.268 28.9341V29.1079H122.239V28.9341C121.711 28.9034 121.282 28.8216 120.953 28.6887C120.604 28.5558 120.295 28.3411 120.036 28.0651C119.727 27.7482 119.518 27.329 119.408 26.8382C119.298 26.3475 119.238 25.6012 119.238 24.5993V19.334H120.016C120.445 19.334 120.823 19.3749 121.122 19.467C121.431 19.5487 121.711 19.6919 121.98 19.8963C122.488 20.2951 123.066 21.0312 123.674 22.1047C124.282 23.1782 124.89 24.4255 125.488 25.8159L126.485 28.1469C126.545 28.29 126.695 28.6172 126.924 29.1181H131.529V28.9341C131.16 28.8932 130.871 28.8114 130.652 28.699ZM119.856 19.0887H119.308V9.65221H119.896C120.913 9.65221 121.701 9.71354 122.259 9.85668C122.807 9.98958 123.286 10.2247 123.684 10.5519C124.203 10.9915 124.601 11.5538 124.89 12.2286C125.179 12.9033 125.329 13.6292 125.329 14.4062C125.329 15.858 124.831 17.0644 123.834 18.0356C123.385 18.465 122.907 18.7513 122.398 18.8842C121.89 19.0171 121.043 19.0887 119.866 19.0887H119.856Z" fill="#92278F"/>
</g>
<path id="Vector_4" d="M152.102 14.8561C151.364 13.3021 150.328 12.0446 149.012 11.0836C147.626 10.0816 145.922 9.49887 143.938 9.34552C143.46 9.30462 142.343 9.28418 140.619 9.28418H132.844V9.45798C133.721 9.51932 134.409 9.74425 134.877 10.143C135.256 10.4701 135.525 10.8995 135.655 11.4107C135.784 11.9117 135.854 12.7091 135.854 13.7928V24.5891C135.854 25.591 135.804 26.3373 135.685 26.828C135.575 27.3188 135.366 27.7379 135.057 28.0549C134.778 28.3514 134.469 28.5559 134.13 28.6888C133.811 28.8114 133.382 28.8932 132.854 28.9239V29.0977H143.33C144.546 29.0977 145.762 28.9852 146.929 28.7603C148.484 28.4638 149.8 27.7584 150.846 26.6645C151.584 25.8875 152.172 24.8958 152.591 23.7098C153.009 22.5239 153.219 21.2561 153.219 19.9168C153.219 18.0868 152.85 16.3794 152.112 14.8356L152.102 14.8561ZM149.401 23.3724C149.062 24.4868 148.563 25.4887 147.906 26.3475C147.248 27.237 146.48 27.9015 145.643 28.3003C144.805 28.699 143.779 28.9035 142.603 28.9035C141.217 28.9035 140.19 28.5047 139.572 27.7277C139.283 27.3699 139.084 26.9303 138.974 26.4191C138.864 25.9181 138.815 25.182 138.815 24.221V9.57044H140.619C141.855 9.57044 142.892 9.6829 143.699 9.90783C145.174 10.327 146.46 11.2062 147.527 12.5149C148.294 13.4555 148.882 14.5698 149.301 15.8171C149.71 17.0746 149.919 18.4139 149.919 19.7941C149.919 21.0517 149.75 22.2478 149.411 23.3622L149.401 23.3724Z" fill="#92278F"/>
<path id="Vector_5" d="M170.393 23.4337C170.214 24.2823 170.015 24.9877 169.815 25.5091C169.596 26.051 169.317 26.5417 168.968 26.9711C168.479 27.605 167.832 28.0753 167.044 28.382C166.267 28.6785 165.29 28.8318 164.143 28.8318C162.997 28.8318 162.16 28.6682 161.492 28.3309C160.814 27.9935 160.306 27.4618 159.977 26.7462C159.787 26.327 159.648 25.8056 159.588 25.1922C159.518 24.589 159.488 23.5973 159.488 22.258V18.8228H160.385C161.093 18.8228 161.691 18.8944 162.15 19.0477C162.618 19.2011 163.007 19.4362 163.296 19.7532C163.595 20.0803 163.834 20.4893 164.004 20.9596C164.163 21.4094 164.293 22.0024 164.383 22.7181H164.562L164.622 15.0196H164.442C164.363 15.7353 164.253 16.2873 164.133 16.6656C164.004 17.0643 163.794 17.412 163.525 17.6982C163.236 18.0152 162.867 18.2299 162.419 18.3525C161.98 18.4752 161.312 18.5263 160.445 18.5263H159.508V9.57038H162.857C163.864 9.57038 164.692 9.64195 165.3 9.78508C165.918 9.92821 166.466 10.1736 166.914 10.5212C167.463 10.9301 167.891 11.4209 168.18 11.9729C168.46 12.5046 168.669 13.1691 168.788 13.9666H168.968L168.729 9.28412H153.527V9.45792C154.046 9.48859 154.484 9.57038 154.813 9.69307C155.162 9.82598 155.471 10.0407 155.74 10.3269C156.039 10.6439 156.249 11.063 156.368 11.5538C156.478 12.0445 156.538 12.7909 156.538 13.7928V24.589C156.538 25.5807 156.488 26.3372 156.368 26.828C156.259 27.3187 156.049 27.7379 155.74 28.0548C155.471 28.3513 155.152 28.5558 154.803 28.6887C154.474 28.8114 154.046 28.8932 153.537 28.9238V29.0976H170.423L170.603 23.4337H170.423H170.393Z" fill="#92278F"/>
<path id="Vector_6" d="M189.253 23.2497C189.074 24.129 188.874 24.8447 188.675 25.3865C188.456 25.9488 188.177 26.46 187.848 26.8996C187.349 27.5539 186.691 28.0447 185.904 28.3514C185.126 28.6581 184.149 28.8217 183.013 28.8217C181.877 28.8217 181.029 28.6581 180.362 28.3207C179.694 27.9833 179.175 27.4517 178.836 26.736C178.647 26.3373 178.508 25.7955 178.448 25.1616C178.378 24.5277 178.348 23.5462 178.348 22.258V13.8031C178.348 12.7807 178.408 12.0037 178.518 11.5129C178.637 11.012 178.866 10.5826 179.195 10.2554C179.464 9.99984 179.764 9.80559 180.112 9.6829C180.431 9.57044 180.85 9.49888 181.348 9.45798V9.28418H172.377V9.45798C172.866 9.47843 173.274 9.55 173.583 9.66246C173.922 9.78514 174.231 9.97939 174.5 10.235C174.829 10.5621 175.069 10.9813 175.188 11.4823C175.308 11.9832 175.368 12.7602 175.368 13.7928V24.5891C175.368 25.5807 175.318 26.3373 175.198 26.828C175.088 27.3188 174.879 27.7379 174.57 28.0549C174.052 28.607 173.304 28.9035 172.367 28.9137V29.0977H189.263L189.443 23.2497L189.243 23.2293L189.253 23.2497Z" fill="#92278F"/>
<path id="Vector_7" d="M197.229 12.0037C197.318 11.2983 197.558 10.7359 197.936 10.327C198.215 10.0407 198.524 9.82604 198.873 9.69313C199.202 9.57044 199.631 9.48865 200.139 9.45798V9.28418H191.168V9.45798C191.686 9.48865 192.115 9.57044 192.444 9.69313C192.803 9.82604 193.112 10.0407 193.371 10.327C193.68 10.6439 193.899 11.0631 194.009 11.5538C194.119 12.0344 194.168 12.7909 194.168 13.8031V24.5993C194.168 25.6114 194.119 26.3578 194.009 26.8485C193.899 27.3392 193.69 27.7482 193.371 28.0753C193.112 28.3616 192.803 28.5661 192.454 28.699C192.125 28.8319 191.696 28.9137 191.168 28.9444V29.1182H200.139V28.9444C199.521 28.9035 199.013 28.7808 198.624 28.5968C198.225 28.4025 197.886 28.0958 197.637 27.6971C197.458 27.4006 197.328 27.0121 197.249 26.5418C197.169 26.0715 197.129 25.4172 197.129 24.6095V13.8133C197.129 13.1385 197.159 12.5353 197.219 12.0139L197.229 12.0037Z" fill="#92278F"/>
<g id="Group_3">
<path id="Vector_8" d="M220.793 28.6992C220.494 28.6072 220.225 28.464 219.985 28.28C219.656 28.0244 219.347 27.6359 219.068 27.1248C218.789 26.6238 218.42 25.7855 217.952 24.62L211.762 9.27417H211.054L205.851 23.0353C205.372 24.2928 204.983 25.2436 204.694 25.8775C204.395 26.5113 204.096 27.0327 203.787 27.4417C203.418 27.9426 203.04 28.3209 202.651 28.5458C202.282 28.7708 201.843 28.8934 201.365 28.9343V29.1082H207.605V28.9241C207.047 28.873 206.578 28.7094 206.21 28.4436C205.93 28.2391 205.711 27.9733 205.552 27.6564C205.392 27.3394 205.312 26.9816 205.312 26.6136C205.312 25.9899 205.532 25.1311 205.96 24.0474L206.319 23.1375L207.077 21.0621H213.466L215.101 25.1822C215.37 25.8672 215.5 26.4193 215.5 26.8283C215.5 27.5235 215.191 28.0858 214.583 28.4743C214.244 28.689 213.676 28.8423 212.848 28.9139V29.0979H222.079V28.9139C221.521 28.8526 221.092 28.7708 220.803 28.6787L220.793 28.6992ZM207.346 20.5509L210.177 12.9649L213.177 20.5509H207.346Z" fill="#92278F"/>
</g>
</g>
<g id="Group_4">
<path id="Vector_9" d="M107.801 46.4405L107.791 46.4071L107.733 46.4912C107.508 46.8219 107.196 47.0761 106.796 47.2535C106.395 47.4311 105.94 47.5204 105.428 47.5204C104.427 47.5204 103.604 47.1531 102.997 46.4418L102.997 46.4416C102.672 46.0634 102.411 45.5727 102.247 45.0136L102.247 45.0136L102.247 45.013C102.072 44.4422 101.985 43.803 101.985 43.0951C101.985 42.264 102.116 41.5131 102.367 40.8642L102.367 40.8639C102.542 40.4044 102.771 39.9797 103.054 39.6227L103.054 39.6228L103.055 39.6214C103.327 39.2531 103.63 38.9755 103.954 38.7873L103.954 38.7873L103.955 38.7869C104.32 38.5664 104.763 38.4551 105.262 38.4551C105.598 38.4551 105.9 38.5107 106.157 38.6205L106.157 38.6206L106.158 38.6208C106.426 38.731 106.685 38.9078 106.935 39.1527L106.936 39.1531C107.262 39.4652 107.511 39.8217 107.685 40.2002L107.685 40.2003C107.783 40.4131 107.915 40.739 108.058 41.1671L108.058 41.1671L108.058 41.1694C108.066 41.1882 108.073 41.2093 108.082 41.2341C108.085 41.2451 108.089 41.2568 108.094 41.2694C108.108 41.3096 108.125 41.3561 108.147 41.4085L108.243 41.3872L108.166 38.5619L108.165 38.5133H108.116H108.105H108.072L108.059 38.544C108.043 38.583 108.027 38.6181 108.011 38.6472C107.996 38.6769 107.982 38.6973 107.97 38.7092L107.97 38.7089L107.966 38.7142C107.901 38.8011 107.824 38.8498 107.73 38.8657C107.635 38.882 107.518 38.8652 107.374 38.8104L107.374 38.8103L107.372 38.8098L106.843 38.6291C106.843 38.629 106.843 38.629 106.843 38.629C106.255 38.4241 105.698 38.3212 105.174 38.3212C104.629 38.3212 104.072 38.4125 103.527 38.6064C102.982 38.789 102.503 39.0516 102.112 39.372C101.598 39.7849 101.197 40.3458 100.919 41.0304C100.629 41.7152 100.485 42.479 100.485 43.2872C100.485 44.346 100.729 45.2712 101.22 46.0378L101.22 46.0381C101.711 46.7933 102.392 47.3316 103.263 47.6291L103.263 47.6292C103.808 47.8118 104.387 47.903 104.987 47.903C105.62 47.903 106.2 47.8005 106.681 47.5938C107.163 47.3869 107.545 47.0761 107.826 46.696L107.826 46.6961L107.826 46.6952C108.063 46.3597 108.219 45.9341 108.319 45.4215L108.222 45.3992C108.113 45.8161 107.978 46.1652 107.801 46.4405Z" fill="#92278F" stroke="#92278F" stroke-width="0.1"/>
<path id="Vector_10" d="M121.746 43.7968C121.669 43.6612 121.581 43.5482 121.493 43.4578M121.746 43.7968C121.829 43.9252 121.942 44.1649 122.095 44.4873C122.103 44.5055 122.112 44.524 122.121 44.5427C122.506 45.3677 122.804 45.9667 123.002 46.3509C123.2 46.7352 123.366 47.0177 123.509 47.1872L121.493 43.4578M121.746 43.7968L121.789 43.7721C121.789 43.7717 121.789 43.7712 121.789 43.7708M121.746 43.7968L121.788 43.7696C121.788 43.77 121.788 43.7704 121.789 43.7708M121.493 43.4578C121.371 43.3448 121.184 43.2318 120.931 43.1187L120.756 43.0407L120.84 43.0234M121.493 43.4578L120.761 42.9885L120.84 43.0234M121.789 43.7708C121.71 43.6319 121.619 43.516 121.528 43.4229L121.528 43.4228L121.527 43.4212C121.4 43.3027 121.207 43.187 120.951 43.0731L120.84 43.0234M121.789 43.7708C121.874 43.9025 121.988 44.1445 122.138 44.4627C122.147 44.482 122.156 44.5015 122.166 44.5214L122.166 44.5215C122.551 45.346 122.849 45.9444 123.047 46.328C123.245 46.7124 123.408 46.9902 123.547 47.1549L123.55 47.1585L123.55 47.1586C123.655 47.3087 123.768 47.4039 123.869 47.4567M120.84 43.0234L123.863 47.4552L123.869 47.4567M120.84 43.0234L120.963 42.9982L120.963 42.9982L120.963 42.998C121.274 42.9298 121.531 42.8499 121.721 42.7693C121.913 42.6882 122.082 42.5843 122.238 42.4697L122.238 42.4698L122.241 42.468C122.749 42.0511 122.997 41.5053 122.997 40.8133C122.997 40.3527 122.885 39.947 122.647 39.5984C122.41 39.251 122.082 38.9849 121.655 38.8118L121.654 38.8116C121.273 38.662 120.738 38.5597 120.073 38.5369L120.073 38.5369H120.071H120.07H120.069H120.068H120.067H120.066H120.065H120.064H120.063H120.062H120.061H120.06H120.059H120.058H120.057H120.056H120.055H120.054H120.053H120.052H120.051H120.05H120.049H120.048H120.047H120.046H120.045H120.044H120.042H120.041H120.04H120.039H120.038H120.037H120.036H120.035H120.034H120.033H120.031H120.03H120.029H120.028H120.027H120.026H120.025H120.023H120.022H120.021H120.02H120.019H120.018H120.016H120.015H120.014H120.013H120.012H120.011H120.009H120.008H120.007H120.006H120.005H120.003H120.002H120.001H120H119.998H119.997H119.996H119.995H119.993H119.992H119.991H119.99H119.988H119.987H119.986H119.985H119.983H119.982H119.981H119.979H119.978H119.977H119.976H119.974H119.973H119.972H119.97H119.969H119.968H119.966H119.965H119.964H119.962H119.961H119.959H119.958H119.957H119.955H119.954H119.953H119.951H119.95H119.949H119.947H119.946H119.944H119.943H119.941H119.94H119.939H119.937H119.936H119.934H119.933H119.932H119.93H119.929H119.927H119.926H119.924H119.923H119.921H119.92H119.918H119.917H119.915H119.914H119.912H119.911H119.909H119.908H119.906H119.905H119.903H119.902H119.9H119.899H119.897H119.896H119.894H119.893H119.891H119.89H119.888H119.886H119.885H119.883H119.882H119.88H119.879H119.877H119.875H119.874H119.872H119.871H119.869H119.867H119.866H119.864H119.863H119.861H119.859H119.858H119.856H119.854H119.853H119.851H119.849H119.848H119.846H119.844H119.843H119.841H119.839H119.838H119.836H119.834H119.833H119.831H119.829H119.828H119.826H119.824H119.822H119.821H119.819H119.817H119.815H119.814H119.812H119.81H119.808H119.807H119.805H119.803H119.801H119.8H119.798H119.796H119.794H119.793H119.791H119.789H119.787H119.785H119.783H119.782H119.78H119.778H119.776H119.774H119.773H119.771H119.769H119.767H119.765H119.763H119.761H119.76H119.758H119.756H119.754H119.752H119.75H119.748H119.746H119.744H119.743H119.741H119.739H119.737H119.735H119.733H119.731H119.729H119.727H119.725H119.723H119.721H119.719H119.717H119.715H119.714H119.712H119.71H119.708H119.706H119.704H119.702H119.7H119.698H119.696H119.694H119.692H119.69H119.688H119.686H119.684H119.682H119.679H119.677H119.675H119.673H119.671H119.669H119.667H119.665H119.663H119.661H119.659H119.657H119.655H119.653H119.651H119.648H119.646H119.644H119.642H119.64H119.638H119.636H119.634H119.631H119.629H119.627H119.625H119.623H119.621H119.619H119.616H119.614H119.612H119.61H119.608H119.606H119.603H119.601H119.599H119.597H119.595H119.592H119.59H119.588H119.586H119.584H119.581H119.579H119.577H119.575H119.572H119.57H119.568H119.566H119.563H119.561H119.559H119.557H119.554H119.552H119.55H119.547H119.545H119.543H119.54H119.538H119.536H119.534H119.531H119.529H119.527H119.524H119.522H119.52H119.517H119.515H119.512H119.51H119.508H119.505H119.503H119.501H119.498H119.496H119.494H119.491H119.489H119.486H119.484H119.482H119.479H119.477H119.474H119.472H119.469H119.467H119.465H119.462H119.46H119.457H119.455H119.452H119.45H119.447H119.445H119.442H119.44H119.437H119.435H119.432H119.43H119.427H119.425H119.422H119.42H119.417H119.415H119.412H119.41H119.407H119.405H119.402H119.4H119.397H119.395H119.392H119.389H119.387H119.384H119.382H119.379H119.377H119.374H119.371H119.369H119.366H119.364H119.361H119.358H119.356H119.353H119.35H119.348H119.345H119.343H119.34H119.337H119.335H119.332H119.329H119.327H119.324H119.321H119.319H119.316H119.313H119.31H119.308H119.305H119.302H119.3H119.297H119.294H119.292H119.289H119.286H119.283H119.281H119.278H119.275H119.272H119.27H119.267H119.264H119.261H119.259H119.256H119.253H119.25H119.247H119.245H119.242H119.239H119.236H119.233H119.231H119.228H119.225H119.222H119.219H119.216H119.214H119.211H119.208H119.205H119.202H119.199H119.196H119.194H119.191H119.188H119.185H119.182H119.179H119.176H119.173H119.17H119.168H119.165H119.162H119.159H119.156H119.153H119.15H119.147H119.144H119.141H119.138H119.135H119.132H119.129H119.126H119.123H119.12H119.117H119.114H119.112H119.109H119.106H119.103H119.1H119.096H119.093H119.09H119.087H119.084H119.081H119.078H119.075H119.072H119.069H119.066H119.063H119.06H119.057H119.054H119.051H119.048H119.045H119.042H119.038H119.035H116.148L116.141 38.6363C116.283 38.6588 116.388 38.6807 116.493 38.7236L116.493 38.7237L116.496 38.7246C116.651 38.7777 116.799 38.8849 116.927 39.0167M120.84 43.0234L123.869 47.4567M123.869 47.4567L123.907 47.4665L123.915 47.4686L123.915 47.4692C123.99 47.5023 124.075 47.5348 124.18 47.5564L124.17 47.6554H122.242H122.21L122.196 47.6263C122.149 47.5242 122.112 47.4373 122.083 47.3685L122.077 47.3567C122.046 47.2845 122.026 47.2373 122.011 47.2125L122.008 47.2072L122.009 47.207L121.546 46.1334L121.546 46.1333C121.271 45.4901 120.996 44.9157 120.711 44.4208C120.426 43.9258 120.165 43.5934 119.93 43.407C119.815 43.3213 119.679 43.2562 119.541 43.2124C119.521 43.2083 119.501 43.2028 119.483 43.1978C119.474 43.1954 119.466 43.1931 119.458 43.1912C119.432 43.1844 119.409 43.18 119.388 43.18L119.386 43.0801C119.714 43.0689 119.953 43.0353 120.125 42.9913C120.367 42.9262 120.592 42.7848 120.808 42.5852C121.272 42.1316 121.509 41.5684 121.509 40.8924C121.509 40.5258 121.444 40.1938 121.304 39.873C121.163 39.5632 120.969 39.2981 120.733 39.0885C120.541 38.9357 120.317 38.826 120.06 38.7599C119.8 38.7045 119.44 38.6708 118.969 38.6708H118.667V45.5711C118.667 46.0453 118.689 46.3682 118.742 46.5995C118.796 46.8294 118.891 47.0136 119.028 47.165L119.029 47.1652C119.144 47.2944 119.292 47.3921 119.451 47.4574L119.453 47.4581L119.453 47.4582C119.545 47.5001 119.66 47.522 119.803 47.5447L119.796 47.6441H116.159L116.152 47.5447C116.296 47.522 116.41 47.5001 116.502 47.4582L116.504 47.4574L116.504 47.4574C116.663 47.3921 116.811 47.2944 116.927 47.1652L116.928 47.1636L116.928 47.1636C117.075 47.0128 117.17 46.8293 117.224 46.5995L117.224 46.599C117.277 46.3794 117.299 46.0344 117.299 45.5711V40.6098C117.299 40.1491 117.267 39.8025 117.223 39.5806C117.17 39.353 117.065 39.1688 116.927 39.0167M116.927 39.0167C116.927 39.0165 116.927 39.0162 116.927 39.016L116.964 38.9825L116.928 39.0174C116.928 39.0171 116.928 39.0169 116.927 39.0167Z" fill="#92278F" stroke="#92278F" stroke-width="0.1"/>
<path id="Vector_11" d="M138.095 38.5374L138.037 38.5283V38.5868V38.5981V38.6481H138.087H138.151C138.259 38.667 138.345 38.6881 138.432 38.7234L138.432 38.7235L138.434 38.7245C138.59 38.7776 138.737 38.8847 138.866 39.0166C139.003 39.1678 139.098 39.3518 139.151 39.5813L139.151 39.5818C139.205 39.8015 139.227 40.1465 139.227 40.6097V44.3731C139.227 45.0649 139.227 45.5011 139.205 45.678L139.205 45.6784C139.173 45.9692 139.118 46.2125 139.044 46.3989C138.959 46.5839 138.831 46.7591 138.659 46.9245C138.378 47.1791 138.032 47.3791 137.608 47.524L137.608 47.5242C137.195 47.669 136.749 47.7361 136.291 47.7361C135.833 47.7361 135.423 47.6577 135.113 47.4933C134.803 47.3287 134.534 47.0644 134.317 46.7092C134.177 46.4774 134.08 46.2124 134.037 45.9363C133.994 45.6578 133.972 45.2091 133.972 44.5878V40.7792C133.972 40.2257 133.994 39.8455 134.037 39.613C134.079 39.3858 134.185 39.1907 134.333 39.0273L134.334 39.0269C134.451 38.8963 134.598 38.789 134.753 38.7358C134.85 38.7027 134.969 38.6695 135.109 38.6475L135.101 38.5481H131.465L131.457 38.6475C131.601 38.6702 131.715 38.692 131.808 38.734L131.807 38.7342L131.812 38.7358C131.968 38.789 132.115 38.8963 132.232 39.0269L132.232 39.0269L132.232 39.0272C132.37 39.1795 132.476 39.3638 132.529 39.5917C132.572 39.8136 132.605 40.1602 132.605 40.621V44.7121C132.605 45.2191 132.616 45.5733 132.649 45.7815C132.717 46.3232 132.942 46.7636 133.315 47.0997C133.891 47.6319 134.809 47.8926 136.026 47.8926C137.246 47.8926 138.108 47.6081 138.737 47.0551L138.737 47.0548C139.007 46.8127 139.189 46.5454 139.281 46.2527L139.281 46.2522C139.371 45.9516 139.426 45.494 139.426 44.8703V40.621C139.426 40.1465 139.448 39.8128 139.502 39.5931L139.502 39.5926C139.556 39.3616 139.651 39.1673 139.787 39.0285C139.915 38.8964 140.063 38.789 140.219 38.7358C140.316 38.7026 140.434 38.6694 140.564 38.6474L140.555 38.5481H138.16C138.139 38.5445 138.117 38.5409 138.095 38.5374Z" fill="#92278F" stroke="#92278F" stroke-width="0.1"/>
<path id="Vector_12" d="M151.134 46.9921C151.05 46.8526 150.996 46.6786 150.953 46.4549C150.91 46.2341 150.899 45.956 150.899 45.5717V40.6104C150.899 40.2928 150.899 40.0263 150.942 39.7828L150.942 39.7828L150.942 39.7806C150.985 39.4483 151.093 39.1886 151.27 39.0066C151.4 38.8737 151.536 38.7671 151.701 38.7142L151.701 38.7142L151.702 38.7139C151.799 38.6807 151.918 38.6475 152.047 38.6255L152.039 38.5262H148.402L148.395 38.6256C148.537 38.648 148.642 38.6699 148.747 38.7128L148.747 38.7129L148.75 38.7139C148.905 38.7671 149.053 38.8744 149.169 39.005L149.169 39.005L149.17 39.0053C149.308 39.1576 149.413 39.3419 149.466 39.5698C149.51 39.7917 149.542 40.1383 149.542 40.5991V45.5604C149.542 46.0237 149.52 46.3687 149.467 46.5883L149.465 46.5879V46.6001V46.6057C149.412 46.8328 149.317 47.0146 149.171 47.1642C149.043 47.2957 148.905 47.3931 148.747 47.458L148.747 47.458L148.745 47.4587C148.653 47.5007 148.538 47.5225 148.395 47.5452L148.402 47.6446H152.05L152.058 47.5454C151.873 47.5119 151.713 47.4678 151.588 47.4032L151.588 47.4032L151.585 47.4022C151.398 47.3166 151.25 47.1772 151.134 46.9921Z" fill="#92278F" stroke="#92278F" stroke-width="0.1"/>
<path id="Vector_13" d="M164.842 43.5293L164.853 43.518L164.827 43.4837C164.512 43.0682 163.997 42.691 163.299 42.3503C163.299 42.3503 163.299 42.3502 163.299 42.3502L162.374 41.8871L162.374 41.8871L162.374 41.8869C161.413 41.4168 160.936 40.7978 160.936 40.0331C160.936 39.8468 160.968 39.6494 161.043 39.4519L161.043 39.4519L161.044 39.4496C161.108 39.2528 161.204 39.0894 161.331 38.9478L161.331 38.9478L161.332 38.9461C161.619 38.5974 162.023 38.4219 162.517 38.4219C162.86 38.4219 163.159 38.5097 163.426 38.6849L163.426 38.6849L163.427 38.6852C163.683 38.8496 163.932 39.1146 164.149 39.4715L164.149 39.4715L164.15 39.4722C164.268 39.66 164.366 39.8822 164.453 40.1072C164.53 40.3206 164.629 40.6245 164.739 41.0075L164.837 40.9929L164.793 38.5292L164.695 38.5146C164.653 38.6433 164.598 38.7185 164.541 38.7617C164.486 38.8046 164.425 38.8191 164.368 38.8191C164.308 38.8191 164.237 38.809 164.143 38.7769C164.099 38.76 164.038 38.7373 163.962 38.7092C163.887 38.681 163.796 38.6472 163.693 38.608C163.407 38.4843 163.162 38.3923 162.991 38.3571C162.82 38.3104 162.628 38.2992 162.429 38.2992C161.81 38.2992 161.258 38.5188 160.808 38.9457C160.549 39.1882 160.347 39.4879 160.201 39.821C160.055 40.1557 159.988 40.5129 159.988 40.8807C159.988 41.4682 160.168 41.9776 160.54 42.3945L160.54 42.3947C160.676 42.5454 160.856 42.6948 161.067 42.8429L161.067 42.8429L161.068 42.8436C161.29 42.992 161.612 43.1738 162.02 43.3887L162.02 43.3887C162.494 43.6372 162.843 43.8392 163.071 44.0063L163.071 44.0064L163.072 44.007C163.311 44.174 163.494 44.3511 163.623 44.5267C163.751 44.7019 163.848 44.9112 163.924 45.1562C163.999 45.3998 164.032 45.6322 164.032 45.8646C164.032 46.407 163.859 46.8576 163.527 47.2091C163.196 47.5599 162.769 47.7359 162.252 47.7359C161.525 47.7359 160.911 47.3531 160.422 46.584C160.183 46.1939 159.964 45.6564 159.777 44.9811L159.679 44.994L159.657 47.5707L159.753 47.5921C159.799 47.4914 159.86 47.4173 159.933 47.3683C160.007 47.3195 160.096 47.2934 160.203 47.2934C160.282 47.2934 160.336 47.2942 160.39 47.3218L160.389 47.3219L160.393 47.3236C160.448 47.346 160.613 47.4136 160.888 47.5376L160.888 47.5377C161.401 47.7666 161.948 47.8811 162.506 47.8811C163.109 47.8811 163.647 47.732 164.097 47.4555C164.547 47.1784 164.884 46.7745 165.108 46.2575L165.108 46.2572C165.265 45.8892 165.344 45.4983 165.344 45.0961C165.344 44.5024 165.173 43.9724 164.842 43.5293Z" fill="#92278F" stroke="#92278F" stroke-width="0.1"/>
<path id="Vector_14" d="M179.246 47.3101C178.891 47.4537 178.446 47.5211 177.921 47.5211C177.397 47.5211 177.008 47.4427 176.698 47.289C176.389 47.1363 176.155 46.8853 176.005 46.5559L176.005 46.5558C175.919 46.3696 175.854 46.1263 175.822 45.8364L175.822 45.8362C175.789 45.557 175.778 45.1078 175.778 44.4859V42.9085H176.191C176.518 42.9085 176.788 42.9421 177.002 43.008C177.214 43.073 177.394 43.1922 177.532 43.3335C177.669 43.4859 177.777 43.672 177.863 43.8824C177.928 44.0591 177.982 44.281 178.014 44.5374L178.114 44.5314L178.136 41.3331L178.036 41.3262C178.004 41.5728 177.96 41.7608 177.907 41.9029L177.907 41.9029L177.906 41.9067C177.853 42.0896 177.759 42.2411 177.631 42.3835C177.493 42.5245 177.325 42.6321 177.125 42.6859C176.923 42.7405 176.62 42.7633 176.213 42.7633H175.778V38.6479H177.315C177.776 38.6479 178.157 38.6817 178.438 38.7482C178.719 38.8147 178.965 38.925 179.179 39.0895L179.18 39.0898C179.428 39.2781 179.632 39.51 179.761 39.7512C179.868 39.9614 179.955 40.2053 180.009 40.4944L180.108 40.4826L180.009 38.5614L180.007 38.514H179.959H173.271L173.263 38.6134C173.405 38.6358 173.511 38.6577 173.615 38.7006L173.615 38.7007L173.618 38.7017C173.774 38.7548 173.921 38.8621 174.038 38.9928L174.038 38.9928L174.038 38.9931C174.175 39.1442 174.27 39.3281 174.324 39.5574C174.367 39.7909 174.4 40.1152 174.4 40.5869V45.5482C174.4 46.009 174.367 46.3556 174.324 46.5775C174.27 46.808 174.175 47.0013 174.03 47.1394L174.03 47.1394L174.028 47.1407C173.9 47.2728 173.752 47.3803 173.596 47.4334C173.499 47.4666 173.38 47.4998 173.251 47.5219L173.26 47.6211H177.921H180.719H180.768L180.769 47.5727L180.847 45.1316L180.748 45.1193C180.671 45.4687 180.594 45.7483 180.508 45.9708L180.5 45.9912L180.509 46.0108L180.511 46.0134C180.414 46.2497 180.277 46.4751 180.13 46.6583L180.129 46.6587C179.904 46.9452 179.602 47.1662 179.246 47.3101Z" fill="#92278F" stroke="#92278F" stroke-width="0.1"/>
<path id="Vector_15" d="M194.124 45.096C194.124 44.4929 193.948 43.9555 193.606 43.5081V43.497L193.596 43.4836C193.28 43.0681 192.766 42.6909 192.068 42.3502C192.068 42.3501 192.068 42.3501 192.068 42.3501L191.143 41.8869L191.143 41.8869L191.142 41.8867C190.183 41.4169 189.716 40.7981 189.716 40.033C189.716 39.8467 189.748 39.6493 189.823 39.4518L189.823 39.4518L189.824 39.4495C189.888 39.2527 189.983 39.0893 190.111 38.9476L190.111 38.9477L190.112 38.946C190.399 38.5973 190.803 38.4217 191.297 38.4217C191.641 38.4217 191.95 38.5098 192.205 38.6842L192.205 38.6842L192.206 38.685C192.463 38.8495 192.711 39.1143 192.917 39.4704L192.917 39.4704L192.918 39.472C193.037 39.6608 193.146 39.8836 193.233 40.1071C193.31 40.3205 193.409 40.6244 193.519 41.0074L193.617 40.9927L193.573 38.5291L193.475 38.5145C193.433 38.6432 193.377 38.7184 193.321 38.7615C193.266 38.8045 193.205 38.819 193.148 38.819C193.088 38.819 193.017 38.8088 192.935 38.7771C192.89 38.7601 192.829 38.7374 192.753 38.7091C192.678 38.6809 192.587 38.6471 192.484 38.6079C192.199 38.4845 191.964 38.3922 191.782 38.3569C191.611 38.3103 191.419 38.2991 191.22 38.2991C190.601 38.2991 190.049 38.5187 189.599 38.9456C189.34 39.1881 189.138 39.4877 188.992 39.8209C188.846 40.1546 188.768 40.5118 188.768 40.8806C188.768 41.4687 188.959 41.9777 189.32 42.3938L189.32 42.3939L189.32 42.3945C189.456 42.5453 189.636 42.6946 189.847 42.8428C190.059 42.9918 190.381 43.1738 190.8 43.3887C191.273 43.637 191.623 43.8393 191.863 44.0069C192.102 44.174 192.284 44.3507 192.401 44.5249L192.401 44.5249L192.402 44.5266C192.531 44.7018 192.628 44.9111 192.704 45.156C192.779 45.3997 192.811 45.632 192.811 45.8645C192.811 46.4068 192.639 46.8575 192.307 47.2089C191.976 47.5598 191.549 47.7357 191.032 47.7357C190.304 47.7357 189.68 47.3526 189.202 46.5841C188.963 46.194 188.744 45.6566 188.568 44.9817L188.47 44.9939L188.448 47.5706L188.543 47.592C188.59 47.4912 188.651 47.4172 188.724 47.3682C188.797 47.3193 188.887 47.2933 188.994 47.2933C189.075 47.2933 189.125 47.2947 189.166 47.3198L189.166 47.3203L189.173 47.3234L189.173 47.3234C189.228 47.3459 189.393 47.4135 189.668 47.5375L189.668 47.5376C190.181 47.7665 190.728 47.8809 191.275 47.8809C191.878 47.8809 192.416 47.7319 192.866 47.4554L192.866 47.4551C193.305 47.1783 193.653 46.7748 193.877 46.2573L193.877 46.2571C194.034 45.89 194.124 45.4991 194.124 45.096Z" fill="#92278F" stroke="#92278F" stroke-width="0.1"/>
</g>
</g>
<g id="Group 24091">
<path id="Vector_16" d="M3.20183 34.0668C1.21757 31.0535 0.29728 28.744 0.0791016 28.1457C10.5794 7.34605 28.2234 1.71031 38.6589 0.899414C34.8326 1.9471 13.0445 6.5757 3.20183 34.0668Z" fill="url(#paint0_linear_1_1389)"/>
<path id="Vector_17" d="M4.0166 35.2734C5.13924 36.8822 6.49579 38.6403 8.09278 40.4145C15.5748 7.54878 41.3378 1.89196 45.1421 0.899414C45.1421 0.899414 14.1517 2.35903 4.01818 35.2734H4.0166Z" fill="url(#paint1_linear_1_1389)"/>
<path id="Vector_18" d="M29.5133 8.96122C21.8969 14.198 12.0938 24.5775 9.03592 41.4345C10.4826 42.9573 12.3437 44.7187 14.1493 46.1475C14.6237 38.6872 18.8927 10.4678 50.1202 1.30472C50.1202 1.30472 41.503 0.899267 29.5133 8.96122Z" fill="url(#paint2_linear_1_1389)"/>
<path id="Vector_19" d="M15.6572 41.4361C15.9529 39.5694 16.3529 37.8065 16.7766 36.2334C18.9207 39.6035 28.1134 51.235 45.2989 55.7161C36.2563 55.03 28.1008 51.055 23.487 47.9638C19.3776 45.2116 16.6517 42.4919 15.6572 41.4361Z" fill="url(#paint3_linear_1_1389)"/>
<path id="Vector_20" d="M22.3876 48.4839C26.051 51.0023 31.7068 54.09 39.0164 55.6565C26.1238 54.6041 18.0994 48.5569 15.0985 46.6336C15.1222 45.2437 15.3151 43.9431 15.489 42.6053C16.3524 43.5491 18.7003 45.9508 22.3876 48.4839Z" fill="url(#paint4_linear_1_1389)"/>
<path id="Vector_21" d="M17.1553 35.1192C18.1719 31.6194 19.2898 29.3618 19.2898 29.3618C28.9348 48.499 44.2719 53.3774 50.4383 55.2976C50.4383 55.2976 32.018 55.2295 17.1553 35.1192Z" fill="url(#paint5_linear_1_1389)"/>
<path id="Vector_22" d="M53.2042 41.1201H53.6786L50.5163 47.283L50.2001 45.9855H50.1985C50.1557 45.9839 50.1131 45.9839 50.072 45.9823C39.5985 45.8428 30.9102 37.9836 30.9102 28.3079C30.9102 18.6323 39.6665 10.7098 50.1985 10.6319H50.2001L50.5163 9.65723L53.6786 15.6579H53.2042C51.4981 13.7231 50.3582 12.9917 49.5549 12.7224C49.3288 12.6462 49.0885 12.6171 48.8513 12.6365C39.9511 13.3242 32.9657 20.0416 32.9657 28.2284C32.9657 36.4153 40.2737 43.4393 49.4632 43.8593C49.781 43.8739 50.0957 43.801 50.3772 43.6518C51.1456 43.2463 51.9931 42.4954 53.2042 41.1234V41.1201Z" fill="url(#paint6_linear_1_1389)"/>
</g>
</g>
<defs>
<linearGradient id="paint0_linear_1_1389" x1="-2.46178" y1="17.4839" x2="50.2281" y2="17.4839" gradientUnits="userSpaceOnUse">
<stop offset="0.15" stop-color="#92278F"/>
<stop offset="1" stop-color="#F16F5B"/>
</linearGradient>
<linearGradient id="paint1_linear_1_1389" x1="-2.46133" y1="20.6562" x2="50.2286" y2="20.6562" gradientUnits="userSpaceOnUse">
<stop offset="0.15" stop-color="#92278F"/>
<stop offset="1" stop-color="#F16F5B"/>
</linearGradient>
<linearGradient id="paint2_linear_1_1389" x1="-2.46213" y1="23.7245" x2="50.2278" y2="23.7245" gradientUnits="userSpaceOnUse">
<stop offset="0.15" stop-color="#92278F"/>
<stop offset="1" stop-color="#F16F5B"/>
</linearGradient>
<linearGradient id="paint3_linear_1_1389" x1="-2.46268" y1="45.9755" x2="50.2273" y2="45.9755" gradientUnits="userSpaceOnUse">
<stop offset="0.15" stop-color="#92278F"/>
<stop offset="1" stop-color="#F16F5B"/>
</linearGradient>
<linearGradient id="paint4_linear_1_1389" x1="-2.46164" y1="49.1309" x2="50.2282" y2="49.1309" gradientUnits="userSpaceOnUse">
<stop offset="0.15" stop-color="#92278F"/>
<stop offset="1" stop-color="#F16F5B"/>
</linearGradient>
<linearGradient id="paint5_linear_1_1389" x1="-2.46189" y1="42.3297" x2="50.228" y2="42.3297" gradientUnits="userSpaceOnUse">
<stop offset="0.15" stop-color="#92278F"/>
<stop offset="1" stop-color="#F16F5B"/>
</linearGradient>
<linearGradient id="paint6_linear_1_1389" x1="-2.46295" y1="28.4701" x2="50.227" y2="28.4701" gradientUnits="userSpaceOnUse">
<stop offset="0.15" stop-color="#92278F"/>
<stop offset="1" stop-color="#F16F5B"/>
</linearGradient>
</defs>
</svg>
