<svg width="24" height="25" viewBox="0 0 24 25" fill="none" xmlns="http://www.w3.org/2000/svg">
<path d="M14.7665 24.2712C14.271 24.2703 13.7819 24.1553 13.3355 23.9348C12.8875 23.7168 12.3978 23.6037 11.902 23.6037C11.4061 23.6037 10.9165 23.7168 10.4685 23.9348C10.0217 24.1538 9.53271 24.2674 9.03749 24.2671C8.397 24.266 7.7702 24.0769 7.23115 23.7221C6.6921 23.3673 6.26332 22.8616 5.99549 22.2649L5.96649 22.2013C5.76263 21.7448 5.46322 21.3399 5.08956 21.0155C4.71589 20.6911 4.27714 20.4551 3.80448 20.3242L3.73048 20.3037C2.87917 20.0646 2.15418 19.4907 1.71289 18.7066C1.2716 17.9225 1.14964 16.9915 1.37348 16.1157L1.41648 15.9485C1.53994 15.4696 1.56078 14.9689 1.47757 14.4809C1.39436 13.9929 1.20909 13.5292 0.934484 13.1217L0.834484 12.9781C0.334944 12.2359 0.140389 11.3218 0.292914 10.4336C0.445439 9.54542 0.932778 8.75454 1.64948 8.2321L1.76048 8.15209C2.15746 7.86421 2.48841 7.49093 2.73021 7.05831C2.97202 6.62568 3.11886 6.14414 3.16048 5.6473L3.17148 5.51498C3.24278 4.66005 3.62389 3.86358 4.23961 3.28272C4.85533 2.70186 5.66094 2.37882 6.49749 2.37732C6.59749 2.37732 6.69749 2.37732 6.79749 2.39168H6.82049C6.92049 2.40091 7.02049 2.40501 7.12049 2.40501C7.56417 2.40375 8.00323 2.31247 8.41238 2.13644C8.82153 1.9604 9.19269 1.70308 9.50449 1.3793L9.51849 1.36904C9.82978 1.04449 10.2009 0.786737 10.6103 0.610794C11.0197 0.43485 11.4591 0.344238 11.903 0.344238C12.3469 0.344238 12.7863 0.43485 13.1957 0.610794C13.605 0.786737 13.9762 1.04449 14.2875 1.36904L14.3005 1.38238C14.6123 1.70616 14.9834 1.96348 15.3926 2.13951C15.8017 2.31555 16.2408 2.40683 16.6845 2.40809C16.7845 2.40809 16.8845 2.40809 16.9845 2.39476H17.0075C17.1075 2.38553 17.2075 2.3804 17.3075 2.3804C18.1437 2.38157 18.9492 2.70408 19.5651 3.28432C20.1809 3.86456 20.5625 4.66042 20.6345 5.51498L20.6455 5.6473C20.6871 6.14414 20.834 6.62568 21.0758 7.05831C21.3176 7.49093 21.6485 7.86421 22.0455 8.15209L22.1555 8.2321C22.8726 8.75421 23.3603 9.54504 23.513 10.4333C23.6657 11.3216 23.4712 12.2359 22.9715 12.9781L22.8715 13.1217C22.5967 13.5291 22.4113 13.9928 22.3281 14.4809C22.2449 14.9689 22.2658 15.4696 22.3895 15.9485L22.4325 16.1157C22.6563 16.9915 22.5344 17.9225 22.0931 18.7066C21.6518 19.4907 20.9268 20.0646 20.0755 20.3037L20.0015 20.3242C19.5281 20.4552 19.0887 20.6917 18.7146 21.0169C18.3406 21.3421 18.0411 21.7479 17.8375 22.2054L17.8085 22.269C17.5407 22.8658 17.1119 23.3714 16.5728 23.7262C16.0338 24.081 15.407 24.2701 14.7665 24.2712ZM14.0595 7.07304C13.9268 7.07256 13.7966 7.10991 13.6834 7.18091C13.5703 7.25191 13.4785 7.35377 13.4185 7.47512L9.10549 16.165C9.06261 16.2513 9.03673 16.3455 9.02933 16.4421C9.02193 16.5387 9.03316 16.6358 9.06236 16.728C9.09156 16.8201 9.13818 16.9055 9.19954 16.9791C9.2609 17.0528 9.33581 17.1134 9.41999 17.1574C9.50416 17.2013 9.59596 17.2279 9.69014 17.2355C9.78432 17.2431 9.87903 17.2315 9.96887 17.2016C10.0587 17.1716 10.1419 17.1238 10.2137 17.0609C10.2856 16.9979 10.3446 16.9211 10.3875 16.8348L14.7015 8.14491C14.7573 8.03247 14.784 7.90723 14.7791 7.78117C14.7742 7.65512 14.7378 7.53246 14.6735 7.42492C14.6092 7.31738 14.5191 7.22856 14.4118 7.16696C14.3044 7.10535 14.1835 7.07301 14.0605 7.07304H14.0595ZM16.2155 13.6304C15.931 13.6304 15.653 13.717 15.4165 13.8791C15.18 14.0412 14.9957 14.2716 14.8869 14.5412C14.778 14.8108 14.7496 15.1074 14.8052 15.3935C14.8608 15.6797 14.9978 15.9425 15.199 16.1487C15.4002 16.355 15.6566 16.4954 15.9356 16.5522C16.2146 16.609 16.5037 16.5796 16.7665 16.4678C17.0292 16.356 17.2537 16.1668 17.4116 15.9241C17.5695 15.6814 17.6537 15.3961 17.6535 15.1044C17.653 14.7135 17.5013 14.3387 17.2317 14.0624C16.9621 13.786 16.5966 13.6307 16.2155 13.6304ZM7.58949 7.72847C7.30512 7.72827 7.02708 7.81455 6.79051 7.97641C6.55395 8.13827 6.36948 8.36844 6.26043 8.63782C6.15138 8.90719 6.12264 9.20369 6.17785 9.48982C6.23306 9.77595 6.36974 10.0389 6.57061 10.2453C6.77148 10.4518 7.02751 10.5925 7.30635 10.6498C7.58519 10.707 7.87432 10.6781 8.13717 10.5668C8.40002 10.4555 8.6248 10.2668 8.7831 10.0245C8.94139 9.78219 9.02609 9.49718 9.02649 9.2055C9.02649 8.8143 8.87519 8.43908 8.60578 8.16217C8.33638 7.88526 7.97088 7.72929 7.58949 7.72847Z" fill="#93288E"/>
</svg>
