<svg width="57" height="19" viewBox="0 0 57 19" fill="none" xmlns="http://www.w3.org/2000/svg">
<g id="upi icons">
<path id="Vector" d="M56.0497 5.80703C55.5393 4.34785 54.1485 3.30002 52.5149 3.30002H52.4807C51.4187 3.30002 50.4617 3.74201 49.7804 4.45156C49.0979 3.74201 48.1409 3.30002 47.0801 3.30002H47.0459C46.1124 3.30002 45.2591 3.64181 44.6037 4.20759V3.91999C44.5813 3.63356 44.3456 3.40847 44.0545 3.40847H41.5487C41.2422 3.40847 40.9947 3.65598 40.9947 3.96359V17.5712C40.9947 17.8788 41.2422 18.1263 41.5487 18.1263H44.0545C44.3338 18.1263 44.5636 17.9177 44.6002 17.6478L44.599 7.8791C44.5988 7.84643 44.6003 7.81377 44.6037 7.78127C44.6438 7.34516 44.9632 6.98686 45.4677 6.94206H45.9297C46.1407 6.9609 46.3186 7.03517 46.4589 7.14713C46.6769 7.3204 46.7983 7.58679 46.7983 7.8791L46.8078 17.5995C46.8078 17.9071 47.0564 18.1558 47.3617 18.1558H49.8675C50.1634 18.1558 50.4038 17.9201 50.418 17.6266L50.4168 7.86613C50.4156 7.54552 50.5642 7.25559 50.8246 7.08349C50.9531 7.00096 51.1075 6.9456 51.2855 6.9291H51.7475C52.2897 6.97624 52.6174 7.38759 52.6162 7.86613L52.6256 17.5736C52.6256 17.8812 52.8743 18.1287 53.1796 18.1287H55.6854C55.9907 18.1287 56.2394 17.8812 56.2394 17.5736V7.133C56.2394 6.42109 56.1593 6.11818 56.0497 5.80703ZM39.0857 3.44392H37.6525V1.11489C37.6525 0.835544 37.4262 0.609253 37.1468 0.609253C37.1138 0.609253 37.082 0.61393 37.0514 0.619844C35.4625 1.05595 35.7808 3.25652 32.8801 3.44392H32.5984C32.5559 3.44392 32.5159 3.4498 32.477 3.45805C32.2295 3.51348 32.0433 3.73386 32.0433 3.9979V6.50371C32.0433 6.80898 32.2919 7.05766 32.5984 7.05766H34.1106L34.1083 17.6833C34.1083 17.9862 34.3534 18.2313 34.6563 18.2313H37.1339C37.4356 18.2313 37.6808 17.9862 37.6808 17.6833L37.6819 7.05766H39.0857C39.391 7.05766 39.6397 6.80898 39.6397 6.50371V3.9979C39.6397 3.69263 39.391 3.44392 39.0857 3.44392Z" fill="#00BAF2"/>
<path id="Vector_2" d="M30.07 3.44424H27.5642C27.2589 3.44424 27.0114 3.69295 27.0114 3.99819V9.17959C27.0055 9.50017 26.7462 9.75713 26.4244 9.75713H25.3754C25.0501 9.75713 24.7873 9.49546 24.7873 9.17014L24.7779 3.99822C24.7779 3.69295 24.5291 3.44427 24.2239 3.44427H21.7181C21.4116 3.44427 21.1641 3.69295 21.1641 3.99822V9.67698C21.1641 11.8339 22.7022 13.3721 24.8603 13.3721C24.8603 13.3721 26.4798 13.3721 26.5293 13.3815C26.8217 13.4145 27.0491 13.6596 27.0491 13.9614C27.0491 14.2596 26.8264 14.5036 26.5376 14.5401C26.5235 14.5424 26.5105 14.546 26.4952 14.5484L22.8307 14.5613C22.5243 14.5613 22.2768 14.81 22.2768 15.1153V17.6199C22.2768 17.9264 22.5243 18.1739 22.8307 18.1739H26.9277C29.087 18.1739 30.624 16.6369 30.624 14.4788V3.99822C30.624 3.69295 30.3765 3.44424 30.07 3.44424ZM5.81538 8.03571V9.58212C5.81538 9.90621 5.55254 10.1703 5.22843 10.1703L3.63841 10.1714V7.07274H5.22843C5.55254 7.07274 5.81538 7.33438 5.81538 7.6597V8.03571ZM6.0358 3.44363H0.558572C0.258009 3.44363 0.015213 3.68763 0.015213 3.98699V6.44215C0.015213 6.44686 0.0163824 6.45157 0.0163824 6.45628C0.0163824 6.46808 0.015213 6.47987 0.015213 6.49046V17.6028C0.015213 17.9046 0.241504 18.1509 0.522054 18.158H3.07497C3.38024 18.158 3.62892 17.9105 3.62892 17.604L3.63837 13.7958H6.03576C8.04181 13.7958 9.43972 12.4038 9.43972 10.3895V6.8547C9.43972 4.84037 8.04184 3.44363 6.0358 3.44363ZM16.2124 13.9186V14.3099C16.2124 14.3418 16.2077 14.3724 16.203 14.4019C16.1971 14.4295 16.1892 14.4567 16.1794 14.4832C16.1016 14.7024 15.8824 14.8615 15.6219 14.8615H14.5788C14.2535 14.8615 13.9883 14.614 13.9883 14.3099V13.8373C13.9883 13.8314 13.9871 13.8255 13.9871 13.8196L13.9883 12.562V12.1683L13.9895 12.1648C13.9907 11.8618 14.2535 11.6167 14.5788 11.6167H15.6219C15.9484 11.6167 16.2124 11.863 16.2124 12.1683L16.2124 13.9186ZM15.8141 3.45803H12.337C12.0294 3.45803 11.7807 3.69141 11.7807 3.97781V4.95256C11.7807 4.95844 11.7819 4.96553 11.7819 4.97141C11.7819 4.97849 11.7807 4.98554 11.7807 4.99262V6.32805C11.7807 6.63099 12.0448 6.87849 12.3701 6.87849H15.6809C15.9425 6.91975 16.15 7.1107 16.1795 7.40889V7.73184C16.15 8.0159 15.9449 8.22331 15.695 8.2469H14.0555C11.875 8.2469 10.3216 9.69549 10.3216 11.7298V14.6435C10.3216 16.6661 11.657 18.1052 13.8221 18.1052H18.3659C19.1815 18.1052 19.8427 17.4876 19.8427 16.7273V7.21912C19.8427 4.91367 18.6547 3.45803 15.8141 3.45803Z" fill="#1F336B"/>
</g>
</svg>
