<svg width="80" height="22" viewBox="0 0 80 22" fill="none" xmlns="http://www.w3.org/2000/svg">
<g id="upi icons">
<path id="Vector" d="M54.8539 17.574V13.6622C54.8539 12.6993 54.4963 12.2179 53.6025 12.2179C53.2449 12.2179 52.8278 12.2782 52.5893 12.3382V18.0554C52.5893 18.2359 52.4105 18.4165 52.2317 18.4165H50.8608C50.682 18.4165 50.5032 18.2359 50.5032 18.0554V11.3754C50.5032 11.1346 50.682 10.9543 50.8608 10.894C51.7549 10.5932 52.6487 10.4126 53.6022 10.4126C55.7477 10.4126 56.9397 11.556 56.9397 13.6625V18.1157C56.9397 18.2962 56.7609 18.4768 56.5821 18.4768H55.7477C55.2115 18.4765 54.8539 18.0554 54.8539 17.574ZM60.2178 15.2269L60.1581 15.7686C60.1581 16.4909 60.6348 16.912 61.4095 16.912C62.0053 16.912 62.5418 16.7314 63.1379 16.4306C63.1977 16.4306 63.257 16.3703 63.3168 16.3703C63.4359 16.3703 63.4956 16.4306 63.5553 16.4906C63.615 16.5509 63.7341 16.7314 63.7341 16.7314C63.8532 16.912 63.9726 17.1526 63.9726 17.3331C63.9726 17.634 63.7938 17.9348 63.5556 18.0554C62.9 18.4165 62.1254 18.5971 61.291 18.5971C60.3375 18.5971 59.5625 18.3562 58.9667 17.8748C58.3709 17.3331 58.0132 16.6112 58.0132 15.7083V13.3613C58.0132 11.4957 59.2052 10.3523 61.2316 10.3523C63.1983 10.3523 64.3306 11.4357 64.3306 13.3613V14.8055C64.3306 14.9861 64.1518 15.1667 63.9729 15.1667H60.2184L60.2178 15.2269ZM60.1581 13.903H62.4227V13.3013C62.4227 12.5791 62.0056 12.0977 61.2904 12.0977C60.5751 12.0977 60.1581 12.5188 60.1581 13.3013V13.903ZM75.3557 15.2269L75.2959 15.7686C75.2959 16.4909 75.7727 16.912 76.5474 16.912C77.1432 16.912 77.6797 16.7314 78.2758 16.4306C78.3355 16.4306 78.3949 16.3703 78.4546 16.3703C78.5737 16.3703 78.6334 16.4306 78.6932 16.4906C78.7529 16.5509 78.872 16.7314 78.872 16.7314C78.9911 16.912 79.1105 17.1526 79.1105 17.3331C79.1105 17.634 78.9317 17.9348 78.6935 18.0554C78.0379 18.4165 77.2632 18.5971 76.4289 18.5971C75.4754 18.5971 74.7004 18.3562 74.1046 17.8748C73.5087 17.3331 73.1511 16.6112 73.1511 15.7083V13.3613C73.1511 11.4957 74.3431 10.3523 76.3695 10.3523C78.3361 10.3523 79.4685 11.4357 79.4685 13.3613V14.8055C79.4685 14.9861 79.2896 15.1667 79.1108 15.1667H75.3563V15.2269H75.3557ZM75.2959 13.903H77.5605V13.3013C77.5605 12.5791 77.1435 12.0977 76.4282 12.0977C75.713 12.0977 75.2959 12.5188 75.2959 13.3013V13.903ZM40.2525 18.4765H41.0869C41.2657 18.4765 41.4445 18.2959 41.4445 18.1154V13.6622C41.4445 11.616 40.3716 10.4123 38.5837 10.4123C38.0473 10.4123 37.4514 10.5326 37.0938 10.6532V8.42639C37.0938 7.94498 36.6768 7.52356 36.1997 7.52356H35.3653C35.1865 7.52356 35.0077 7.70412 35.0077 7.88469V18.1154C35.0077 18.2959 35.1865 18.4765 35.3653 18.4765H36.7362C36.915 18.4765 37.0938 18.2959 37.0938 18.1154V12.4585C37.3917 12.3382 37.8091 12.2779 38.107 12.2779C39.0011 12.2779 39.3584 12.699 39.3584 13.7221V17.634C39.4181 18.0554 39.7758 18.4765 40.2525 18.4765ZM49.2518 13.4213V15.6481C49.2518 17.5137 48.0004 18.6571 45.9143 18.6571C43.8879 18.6571 42.5768 17.5137 42.5768 15.6481V13.4213C42.5768 11.5557 43.8282 10.4123 45.9143 10.4123C48.0004 10.4123 49.2518 11.556 49.2518 13.4213ZM47.166 13.4213C47.166 12.699 46.749 12.2176 45.974 12.2176C45.199 12.2176 44.782 12.6387 44.782 13.4213V15.6481C44.782 16.3703 45.199 16.7914 45.974 16.7914C46.749 16.7914 47.166 16.3703 47.166 15.6481V13.4213ZM33.8757 12.3985C33.8757 14.3244 32.4455 15.6484 30.5382 15.6484C30.0615 15.6484 29.6441 15.5881 29.2271 15.4075V18.1157C29.2271 18.2962 29.0483 18.4768 28.8695 18.4768H27.4986C27.3198 18.4768 27.141 18.2962 27.141 18.1157V8.54698C27.141 8.30612 27.3198 8.12587 27.4986 8.06557C28.3927 7.76474 29.2865 7.58417 30.24 7.58417C32.3855 7.58417 33.8754 8.90811 33.8754 10.9543C33.8757 10.954 33.8757 12.3985 33.8757 12.3985ZM31.7302 10.8337C31.7302 9.87091 31.0747 9.38951 30.1806 9.38951C29.6441 9.38951 29.2865 9.57007 29.2865 9.57007V13.5419C29.6441 13.7224 29.823 13.7827 30.24 13.7827C31.1341 13.7827 31.7896 13.241 31.7896 12.3385V10.834H31.7302V10.8337ZM72.3758 12.3985C72.3758 14.3244 70.9456 15.6484 69.0383 15.6484C68.5615 15.6484 68.1442 15.5881 67.7272 15.4075V18.1157C67.7272 18.2962 67.5484 18.4768 67.3695 18.4768H65.9987C65.8199 18.4768 65.6411 18.2962 65.6411 18.1157V8.54698C65.6411 8.30612 65.8199 8.12587 65.9987 8.06557C66.8928 7.76474 67.7866 7.58417 68.74 7.58417C70.8855 7.58417 72.3755 8.90811 72.3755 10.9543C72.3758 10.954 72.3758 12.3985 72.3758 12.3985ZM70.2303 10.8337C70.2303 9.87091 69.5747 9.38951 68.6807 9.38951C68.1442 9.38951 67.7866 9.57007 67.7866 9.57007V13.5419C68.1442 13.7224 68.323 13.7827 68.74 13.7827C69.6341 13.7827 70.2897 13.241 70.2897 12.3385V10.834H70.2303V10.8337Z" fill="#5F259F"/>
<path id="Vector_2" d="M11.5541 21.9971C17.3955 21.9971 22.1309 17.2617 22.1309 11.4203C22.1309 5.57888 17.3955 0.843475 11.5541 0.843475C5.7127 0.843475 0.977295 5.57888 0.977295 11.4203C0.977295 17.2617 5.7127 21.9971 11.5541 21.9971Z" fill="#5F259F"/>
<path id="Vector_3" d="M16.5642 8.48047C16.5642 8.07003 16.2105 7.71804 15.798 7.71804H14.3836L11.1418 4.0228C10.8472 3.67082 10.3757 3.55359 9.90419 3.67082L8.78435 4.0228C8.6075 4.08157 8.54845 4.31602 8.66655 4.43325L12.2029 7.77681H6.83869C6.66184 7.77681 6.54404 7.89404 6.54404 8.07003V8.65647C6.54404 9.06691 6.89774 9.4189 7.31019 9.4189H8.13538V12.2345C8.13538 14.3461 9.25522 15.578 11.1415 15.578C11.7308 15.578 12.2026 15.5193 12.7919 15.2848V17.162C12.7919 17.69 13.2044 18.1004 13.7349 18.1004H14.5601C14.7369 18.1004 14.9138 17.9244 14.9138 17.7484V9.36044H16.2695C16.4464 9.36044 16.5642 9.24321 16.5642 9.06722V8.48047ZM12.7919 13.5249C12.4382 13.7009 11.9667 13.7597 11.613 13.7597C10.67 13.7597 10.1985 13.2904 10.1985 12.2345V9.4189H12.7919V13.5249Z" fill="white"/>
</g>
</svg>
