<svg width="27" height="32" viewBox="0 0 27 32" fill="none" xmlns="http://www.w3.org/2000/svg">
<path id="Vector" d="M26.3023 10.7038C26.3023 10.0412 26.3042 9.37963 26.3023 8.71707C26.3003 8.05451 26.2955 7.39292 26.2897 6.73036C26.282 5.93684 25.8884 5.50904 25.0905 5.45569C24.6891 5.42853 24.2858 5.44308 23.8835 5.42465C22.4657 5.35868 21.0779 5.11713 19.723 4.68933C17.6311 4.02871 15.8225 2.89858 14.2326 1.394C13.6204 0.814868 13.0721 0.828449 12.4473 1.38333C12.339 1.47937 12.2355 1.58122 12.1281 1.6792C10.6572 3.0179 8.9908 4.02095 7.10008 4.6418C5.39021 5.20347 3.63295 5.44405 1.837 5.44987C0.751892 5.45375 0.391156 5.84469 0.382452 6.91274C0.366978 8.41344 0.337964 9.91608 0.328293 11.4177C0.311852 13.9875 0.432742 16.5475 0.982067 19.0677C1.64358 22.1002 2.91051 24.8261 5.06816 27.0941C7.13103 29.2622 9.65715 30.6843 12.4241 31.7349C13.0469 31.9716 13.5991 31.9784 14.2258 31.7407C17.1185 30.6426 19.7423 29.14 21.8458 26.8176C24.4841 23.9055 25.6437 20.3764 26.0982 16.5552C26.3294 14.6112 26.3593 12.6575 26.3013 10.7028L26.3023 10.7038ZM19.0199 13.5626C16.868 15.5794 14.7249 17.6058 12.5817 19.6313C12.3264 19.8729 12.0343 20.0203 11.6668 20.063C11.3786 20.0223 11.0953 19.9379 10.8748 19.6925C9.78771 18.4808 8.70067 17.2692 7.60008 16.0692C7.4318 15.8859 7.46662 15.7966 7.632 15.657C8.03819 15.3136 8.44438 14.9692 8.82446 14.5976C9.03529 14.392 9.15038 14.4405 9.32253 14.6364C10.0247 15.4358 10.7558 16.2099 11.4444 17.0199C11.6949 17.3138 11.8225 17.3643 12.1291 17.0655C13.8844 15.3562 15.6726 13.6819 17.4318 11.9775C17.7104 11.7068 17.8632 11.7088 18.0992 12.0017C18.3922 12.3645 18.7113 12.7109 19.0498 13.0319C19.2819 13.2512 19.2259 13.3705 19.0199 13.5645V13.5626Z" fill="#00AA44"/>
</svg>
