<svg width="22" height="22" viewBox="0 0 22 22" fill="none" xmlns="http://www.w3.org/2000/svg">
<path d="M18.4323 10.1593C15.9378 7.66353 13.4381 5.17286 10.9519 2.66869C10.5542 2.26835 10.1101 2.08586 9.55302 2.08843C7.6381 2.09807 5.72319 2.08907 3.80827 2.09357C2.65868 2.0955 1.98011 2.77793 1.97561 3.92945C1.97175 4.88176 1.97497 5.83344 1.97497 6.78576C1.97497 7.75928 1.98203 8.7328 1.9724 9.70632C1.96726 10.239 2.14911 10.6676 2.53209 11.048C5.04269 13.5432 7.54171 16.05 10.0446 18.5528C10.9288 19.4371 11.8483 19.4371 12.7281 18.5573C14.625 16.6591 16.5213 14.7616 18.4188 12.8646C19.3191 11.9644 19.3262 11.0532 18.4323 10.1593ZM4.97843 6.35779C4.24909 6.36486 3.69582 5.83344 3.67397 5.1041C3.65212 4.3934 4.24459 3.79065 4.96429 3.79065C5.68335 3.79065 6.23597 4.34649 6.23919 5.07325C6.2424 5.81288 5.71483 6.35008 4.97843 6.35779Z" fill="#2C9922"/>
</svg>
